<?xml version="1.0" encoding="UTF-8" standalone="no"?>
<!-- Created with Fritzing (http://www.fritzing.org/) -->

<svg
   xmlns:dc="http://purl.org/dc/elements/1.1/"
   xmlns:cc="http://creativecommons.org/ns#"
   xmlns:rdf="http://www.w3.org/1999/02/22-rdf-syntax-ns#"
   xmlns:svg="http://www.w3.org/2000/svg"
   xmlns="http://www.w3.org/2000/svg"
   xmlns:sodipodi="http://sodipodi.sourceforge.net/DTD/sodipodi-0.dtd"
   xmlns:inkscape="http://www.inkscape.org/namespaces/inkscape"
   version="1.2"
   x="0in"
   y="0in"
   width="1.8110236in"
   height="2.2834644in"
   viewBox="0 0 130.39379 164.40902"
   id="svg4160"
   sodipodi:docname="case.svg"
   inkscape:version="0.92.2 (unknown)">
  <metadata
     id="metadata4166" />
  <defs
     id="defs4164" />
  <sodipodi:namedview
     pagecolor="#ffffff"
     bordercolor="#666666"
     borderopacity="1"
     objecttolerance="10"
     gridtolerance="10"
     guidetolerance="10"
     inkscape:pageopacity="0"
     inkscape:pageshadow="2"
     inkscape:window-width="1110"
     inkscape:window-height="918"
     id="namedview4162"
     showgrid="false"
     inkscape:snap-center="true"
     inkscape:snap-nodes="true"
     showguides="true"
     inkscape:guide-bbox="true"
     inkscape:object-paths="true"
     fit-margin-top="0"
     fit-margin-left="0"
     fit-margin-right="0"
     fit-margin-bottom="0"
     inkscape:zoom="1"
     inkscape:cx="175.04563"
     inkscape:cy="-96.290096"
     inkscape:window-x="24"
     inkscape:window-y="85"
     inkscape:window-maximized="0"
     inkscape:current-layer="svg4160"
     inkscape:snap-to-guides="true"
     inkscape:snap-smooth-nodes="true"
     inkscape:snap-grids="false"
     inkscape:snap-intersection-paths="true"
     inkscape:snap-others="true">
    <sodipodi:guide
       position="22.640999,47.717987"
       orientation="1,0"
       id="guide7869"
       inkscape:locked="false" />
    <sodipodi:guide
       position="17.951612,43.028602"
       orientation="0,1"
       id="guide7871"
       inkscape:locked="false" />
    <sodipodi:guide
       position="95.01467,52.344352"
       orientation="1,0"
       id="guide2149"
       inkscape:locked="false" />
    <sodipodi:guide
       position="67.64218,147.90907"
       orientation="0,1"
       id="guide2151"
       inkscape:locked="false" />
    <sodipodi:guide
       position="6.0000043,87.126157"
       orientation="1,0"
       id="guide2153"
       inkscape:locked="false" />
    <sodipodi:guide
       position="125.05502,134.0346"
       orientation="1,0"
       id="guide2155"
       inkscape:locked="false" />
    <sodipodi:guide
       position="28.973419,6.1775278"
       orientation="0,1"
       id="guide2157"
       inkscape:locked="false" />
    <sodipodi:guide
       position="50.322962,24.036213"
       orientation="0,1"
       id="guide2161"
       inkscape:locked="false" />
    <sodipodi:guide
       position="108.44435,38.914705"
       orientation="0,1"
       id="guide2163"
       inkscape:locked="false" />
    <sodipodi:guide
       position="108.44437,30.231112"
       orientation="0,1"
       id="guide2165"
       inkscape:locked="false" />
    <sodipodi:guide
       position="34.266836,59.159001"
       orientation="0,1"
       id="guide2167"
       inkscape:locked="false" />
    <sodipodi:guide
       position="34.266836,7.8134238"
       orientation="0,1"
       id="guide2169"
       inkscape:locked="false" />
    <sodipodi:guide
       position="57.689583,31.402808"
       orientation="1,0"
       id="guide2171"
       inkscape:locked="false" />
    <sodipodi:guide
       position="111.45609,16.801466"
       orientation="1,0"
       id="guide2173"
       inkscape:locked="false" />
    <sodipodi:guide
       position="108.44435,55.356063"
       orientation="0,1"
       id="guide2175"
       inkscape:locked="false" />
    <sodipodi:guide
       position="108.44437,13.789755"
       orientation="0,1"
       id="guide2177"
       inkscape:locked="false" />
    <sodipodi:guide
       position="51.460611,6.2588588"
       orientation="1,0"
       id="guide2179"
       inkscape:locked="false" />
    <sodipodi:guide
       position="79.240183,6.2588588"
       orientation="1,0"
       id="guide2181"
       inkscape:locked="false" />
    <sodipodi:guide
       position="8.0054855,137.3189"
       orientation="0,1"
       id="guide2183"
       inkscape:locked="false" />
    <sodipodi:guide
       position="8.0054855,119.46071"
       orientation="0,1"
       id="guide2185"
       inkscape:locked="false" />
    <sodipodi:guide
       position="9.0169764,106.80745"
       orientation="0,1"
       id="guide2187"
       inkscape:locked="false" />
    <sodipodi:guide
       position="9.0003364,96.927129"
       orientation="0,1"
       id="guide2189"
       inkscape:locked="false" />
    <sodipodi:guide
       position="-4.3948368e-08,79.726209"
       orientation="1,0"
       id="guide2191"
       inkscape:locked="false" />
    <sodipodi:guide
       position="130.3938,70.85643"
       orientation="1,0"
       id="guide2193"
       inkscape:locked="false" />
    <sodipodi:guide
       position="42.093345,164.40903"
       orientation="0,1"
       id="guide2195"
       inkscape:locked="false" />
    <sodipodi:guide
       position="41.723769,4.0425921e-08"
       orientation="0,1"
       id="guide2197"
       inkscape:locked="false" />
    <sodipodi:guide
       position="63.764335,145.27158"
       orientation="0,1"
       id="guide6548"
       inkscape:locked="false" />
    <sodipodi:guide
       position="72.649529,63.202653"
       orientation="0,1"
       id="guide6550"
       inkscape:locked="false" />
    <sodipodi:guide
       position="18.900405,79.966486"
       orientation="1,0"
       id="guide6552"
       inkscape:locked="false" />
    <sodipodi:guide
       position="122.3914,88.328994"
       orientation="1,0"
       id="guide6554"
       inkscape:locked="false" />
    <sodipodi:guide
       position="144.0001,67.499828"
       orientation="0,1"
       id="guide6576"
       inkscape:locked="false" />
    <sodipodi:guide
       position="195.75014,140.24964"
       orientation="0,1"
       id="guide6578"
       inkscape:locked="false" />
    <sodipodi:guide
       position="99.000072,87.769406"
       orientation="1,0"
       id="guide6580"
       inkscape:locked="false" />
    <sodipodi:guide
       position="26.250019,169.49957"
       orientation="1,0"
       id="guide6582"
       inkscape:locked="false" />
    <sodipodi:guide
       position="65.196892,82.204522"
       orientation="1,0"
       id="guide6607"
       inkscape:locked="false" />
    <sodipodi:guide
       position="14.950286,14.664449"
       orientation="0,1"
       id="guide11235"
       inkscape:locked="false" />
    <sodipodi:guide
       position="14.950286,14.664449"
       orientation="1,0"
       id="guide11237"
       inkscape:locked="false" />
    <sodipodi:guide
       position="115.44351,155.8121"
       orientation="1,0"
       id="guide11243"
       inkscape:locked="false" />
    <sodipodi:guide
       position="-110.49178,2.3715212"
       orientation="1,0"
       id="guide11368"
       inkscape:locked="false" />
    <sodipodi:guide
       position="-82.807535,2.3668612"
       orientation="1,0"
       id="guide11370"
       inkscape:locked="false" />
    <sodipodi:guide
       position="14.241696,116.62608"
       orientation="0,1"
       id="guide11391"
       inkscape:locked="false" />
    <sodipodi:guide
       position="-4.3948368e-08,123.11036"
       orientation="0,1"
       id="guide11402"
       inkscape:locked="false" />
    <sodipodi:guide
       position="-1.4589854,133.47378"
       orientation="0,1"
       id="guide11404"
       inkscape:locked="false" />
    <sodipodi:guide
       position="26.250019,160.22557"
       orientation="0,1"
       id="guide11420"
       inkscape:locked="false" />
    <sodipodi:guide
       position="24.071127,151.54144"
       orientation="1,0"
       id="guide11422"
       inkscape:locked="false" />
    <sodipodi:guide
       position="402.81591,-42.769281"
       orientation="0,1"
       id="guide11511"
       inkscape:locked="false" />
    <sodipodi:guide
       position="170.30725,-47.274376"
       orientation="1,0"
       id="guide11513"
       inkscape:locked="false" />
    <sodipodi:guide
       position="270.80001,-47.274376"
       orientation="1,0"
       id="guide11518"
       inkscape:locked="false" />
    <sodipodi:guide
       position="297.93009,-47.163797"
       orientation="1,0"
       id="guide11523"
       inkscape:locked="false" />
    <sodipodi:guide
       position="398.42284,-47.163797"
       orientation="1,0"
       id="guide11527"
       inkscape:locked="false" />
  </sodipodi:namedview>
  <g
     partID="858083170"
     id="g10"
     transform="translate(2.1792057,-4.384568)">
    <g
       transform="translate(3.8208,20.8843)"
       id="g8">
      <g
         transform="translate(-66.4284,-117.604)"
         id="g6">
        <g
           id="board">
          <g
             id="g3">
            <rect
               x="66.428398"
               y="117.604"
               width="119.055"
               id="boardoutline"
               ry="11.3386"
               style="opacity:1;fill:#8787de;fill-opacity:1;stroke:none;stroke-width:1.41732001;stroke-linecap:round;stroke-linejoin:round;stroke-miterlimit:4;stroke-dasharray:none;stroke-dashoffset:0;stroke-opacity:1;paint-order:markers stroke fill"
               height="141.73199"
               rx="11.3386" />
          </g>
        </g>
      </g>
    </g>
  </g>
  <path
     style="opacity:1;fill:#88aa00;fill-opacity:1;stroke:none;stroke-width:1.88976395;stroke-linecap:round;stroke-linejoin:round;stroke-miterlimit:4;stroke-dasharray:none;stroke-dashoffset:0;stroke-opacity:1;paint-order:markers stroke fill"
     d="M 402.50195 270.21289 C 396.22037 270.21289 391.16406 275.2692 391.16406 281.55078 L 391.16406 297.97266 L 391.16406 343.27148 L 391.16406 427.37695 L 391.16406 434.03516 L 400.08398 425.11523 A 1.8899528 1.8899528 0 0 1 401.42188 424.56055 L 407.09961 424.56055 A 1.8899528 1.8899528 0 0 1 408.43555 425.11523 L 418.25781 434.93555 A 1.8899528 1.8899528 0 0 1 418.8125 436.27344 L 418.8125 441.95117 A 1.8899528 1.8899528 0 0 1 418.25781 443.28711 L 408.43555 453.10938 A 1.8899528 1.8899528 0 0 1 407.09961 453.66406 L 401.42188 453.66406 A 1.8899528 1.8899528 0 0 1 400.08398 453.10938 L 391.16406 444.1875 L 391.16406 464.27148 L 391.16406 470.27148 C 391.16406 476.55305 396.22037 481.61133 402.50195 481.61133 L 538.56445 481.61133 C 544.84604 481.61133 549.9043 476.55305 549.9043 470.27148 L 549.9043 464.27148 L 549.9043 427.37695 L 549.9043 343.27148 L 549.9043 297.97266 L 549.9043 281.55078 C 549.9043 275.2692 544.84604 270.21289 538.56445 270.21289 L 402.50195 270.21289 z M 403.09766 276.23828 A 5.8582626 5.8582626 0 0 1 403.12695 276.24023 A 5.8582626 5.8582626 0 0 1 403.14258 276.24023 A 5.8582626 5.8582626 0 0 1 403.45703 276.25586 A 5.8582626 5.8582626 0 0 1 403.82812 276.28906 A 5.8582626 5.8582626 0 0 1 404.01758 276.31836 A 5.8582626 5.8582626 0 0 1 404.42969 276.39844 A 5.8582626 5.8582626 0 0 1 404.55664 276.42969 A 5.8582626 5.8582626 0 0 1 404.99023 276.55859 A 5.8582626 5.8582626 0 0 1 405.11914 276.60742 A 5.8582626 5.8582626 0 0 1 405.54102 276.7793 A 5.8582626 5.8582626 0 0 1 405.64258 276.82812 A 5.8582626 5.8582626 0 0 1 406.07617 277.06055 A 5.8582626 5.8582626 0 0 1 406.13477 277.0957 A 5.8582626 5.8582626 0 0 1 406.55469 277.37695 A 5.8582626 5.8582626 0 0 1 406.63867 277.43945 A 5.8582626 5.8582626 0 0 1 407.00195 277.73828 A 5.8582626 5.8582626 0 0 1 407.0918 277.82227 A 5.8582626 5.8582626 0 0 1 407.42578 278.16016 A 5.8582626 5.8582626 0 0 1 407.48438 278.22656 A 5.8582626 5.8582626 0 0 1 407.80664 278.62305 A 5.8582626 5.8582626 0 0 1 407.82031 278.64062 A 5.8582626 5.8582626 0 0 1 407.92773 278.79102 A 5.8582626 5.8582626 0 0 1 407.93555 278.80273 A 5.8582626 5.8582626 0 0 1 408.21875 279.26367 A 5.8582626 5.8582626 0 0 1 408.23438 279.29102 A 5.8582626 5.8582626 0 0 1 408.24023 279.30273 A 5.8582626 5.8582626 0 0 1 408.44336 279.7207 A 5.8582626 5.8582626 0 0 1 408.50781 279.86719 A 5.8582626 5.8582626 0 0 1 408.64648 280.24414 A 5.8582626 5.8582626 0 0 1 408.70508 280.41992 A 5.8582626 5.8582626 0 0 1 408.79297 280.76367 A 5.8582626 5.8582626 0 0 1 408.85156 281.01953 A 5.8582626 5.8582626 0 0 1 408.89258 281.29102 A 5.8582626 5.8582626 0 0 1 408.93164 281.61523 A 5.8582626 5.8582626 0 0 1 408.95117 281.97461 A 5.8582626 5.8582626 0 0 1 408.95703 282.09766 A 5.8582626 5.8582626 0 0 1 408.92773 282.62891 A 5.8582626 5.8582626 0 0 1 408.88477 282.95508 A 5.8582626 5.8582626 0 0 1 408.84766 283.19531 A 5.8582626 5.8582626 0 0 1 408.75391 283.58398 A 5.8582626 5.8582626 0 0 1 408.71094 283.75391 A 5.8582626 5.8582626 0 0 1 408.57422 284.14648 A 5.8582626 5.8582626 0 0 1 408.51758 284.30664 A 5.8582626 5.8582626 0 0 1 408.33398 284.70117 A 5.8582626 5.8582626 0 0 1 408.26953 284.83203 A 5.8582626 5.8582626 0 0 1 407.98438 285.31445 A 5.8582626 5.8582626 0 0 1 407.63672 285.78906 L 407.63672 285.79492 A 5.8582626 5.8582626 0 0 1 407.61133 285.82227 A 5.8582626 5.8582626 0 0 1 406.79688 286.63477 L 406.78516 286.63477 A 5.8582626 5.8582626 0 0 1 406.73828 286.67578 A 5.8582626 5.8582626 0 0 1 406.73242 286.68164 A 5.8582626 5.8582626 0 0 1 406.55469 286.81836 C 406.55202 286.81836 406.54953 286.81686 406.54688 286.81641 A 5.8582626 5.8582626 0 0 1 403.09961 287.95508 A 5.8582626 5.8582626 0 0 1 399.83984 286.96094 C 399.83861 286.96123 399.83717 286.96064 399.83594 286.96094 A 5.8582626 5.8582626 0 0 1 398.22266 285.33789 A 5.8582626 5.8582626 0 0 1 397.92773 284.8418 A 5.8582626 5.8582626 0 0 1 397.68555 284.32617 A 5.8582626 5.8582626 0 0 1 397.67383 284.30078 A 5.8582626 5.8582626 0 0 1 397.51562 283.84961 A 5.8582626 5.8582626 0 0 1 397.47461 283.73047 A 5.8582626 5.8582626 0 0 1 397.36133 283.25781 A 5.8582626 5.8582626 0 0 1 397.24023 282.09766 A 5.8582626 5.8582626 0 0 1 397.26953 281.51367 A 5.8582626 5.8582626 0 0 1 397.26953 281.51172 A 5.8582626 5.8582626 0 0 1 397.28125 281.4375 A 5.8582626 5.8582626 0 0 1 397.47266 280.48242 A 5.8582626 5.8582626 0 0 1 397.50195 280.36719 A 5.8582626 5.8582626 0 0 1 397.50195 280.36523 A 5.8582626 5.8582626 0 0 1 397.57422 280.16602 A 5.8582626 5.8582626 0 0 1 397.70312 279.81445 A 5.8582626 5.8582626 0 0 1 397.95703 279.28906 A 5.8582626 5.8582626 0 0 1 397.95703 279.28711 A 5.8582626 5.8582626 0 0 1 398.07227 279.09766 A 5.8582626 5.8582626 0 0 1 398.46484 278.52539 A 5.8582626 5.8582626 0 0 1 398.61719 278.32422 A 5.8582626 5.8582626 0 0 1 398.61719 278.32227 A 5.8582626 5.8582626 0 0 1 398.89062 278.0293 A 5.8582626 5.8582626 0 0 1 399.09766 277.82227 A 5.8582626 5.8582626 0 0 1 399.29492 277.64844 A 5.8582626 5.8582626 0 0 1 399.55664 277.43555 A 5.8582626 5.8582626 0 0 1 399.74609 277.30078 A 5.8582626 5.8582626 0 0 1 400.04492 277.10352 A 5.8582626 5.8582626 0 0 1 400.23438 276.99414 A 5.8582626 5.8582626 0 0 1 400.55469 276.82422 A 5.8582626 5.8582626 0 0 1 400.75 276.73828 A 5.8582626 5.8582626 0 0 1 401.11914 276.58984 A 5.8582626 5.8582626 0 0 1 401.27344 276.53711 A 5.8582626 5.8582626 0 0 1 401.66016 276.42383 A 5.8582626 5.8582626 0 0 1 401.86328 276.37695 A 5.8582626 5.8582626 0 0 1 402.23828 276.30664 A 5.8582626 5.8582626 0 0 1 402.42383 276.28516 A 5.8582626 5.8582626 0 0 1 402.89062 276.24609 A 5.8582626 5.8582626 0 0 1 403.09766 276.23828 z M 537.08789 276.23828 A 5.8582626 5.8582626 0 0 1 537.5957 276.26367 A 5.8582626 5.8582626 0 0 1 538.05078 276.32422 A 5.8582626 5.8582626 0 0 1 538.16406 276.3418 A 5.8582626 5.8582626 0 0 1 538.71484 276.47461 A 5.8582626 5.8582626 0 0 1 539.26953 276.66602 A 5.8582626 5.8582626 0 0 1 540.78516 277.55859 A 5.8582626 5.8582626 0 0 1 542.67773 280.36523 A 5.8582626 5.8582626 0 0 1 542.81836 280.90625 A 5.8582626 5.8582626 0 0 1 542.82422 280.93164 A 5.8582626 5.8582626 0 0 1 542.82617 280.94336 A 5.8582626 5.8582626 0 0 1 542.90039 281.42578 A 5.8582626 5.8582626 0 0 1 542.91602 281.55469 A 5.8582626 5.8582626 0 0 1 542.94727 282.09766 A 5.8582626 5.8582626 0 0 1 542.93555 282.30859 A 5.8582626 5.8582626 0 0 1 542.91992 282.61914 A 5.8582626 5.8582626 0 0 1 542.87109 282.98242 A 5.8582626 5.8582626 0 0 1 542.83789 283.20117 A 5.8582626 5.8582626 0 0 1 542.75 283.5625 A 5.8582626 5.8582626 0 0 1 542.69727 283.76953 A 5.8582626 5.8582626 0 0 1 542.5918 284.07617 A 5.8582626 5.8582626 0 0 1 542.49805 284.33203 A 5.8582626 5.8582626 0 0 1 542.38867 284.56836 A 5.8582626 5.8582626 0 0 1 542.23828 284.87695 A 5.8582626 5.8582626 0 0 1 542.13672 285.04883 A 5.8582626 5.8582626 0 0 1 541.93945 285.36914 A 5.8582626 5.8582626 0 0 1 541.78711 285.57422 A 5.8582626 5.8582626 0 0 1 541.625 285.79492 A 5.8582626 5.8582626 0 0 1 541.58789 285.83594 A 5.8582626 5.8582626 0 0 1 541.41602 286.02539 A 5.8582626 5.8582626 0 0 1 541.24414 286.2168 A 5.8582626 5.8582626 0 0 1 541.22852 286.23242 A 5.8582626 5.8582626 0 0 1 541.19922 286.25781 A 5.8582626 5.8582626 0 0 1 540.98633 286.45312 A 5.8582626 5.8582626 0 0 1 540.79883 286.62305 A 5.8582626 5.8582626 0 0 1 540.75195 286.6582 A 5.8582626 5.8582626 0 0 1 540.54492 286.81836 C 540.54231 286.8179 540.53972 286.81686 540.53711 286.81641 A 5.8582626 5.8582626 0 0 1 540.32812 286.97266 A 5.8582626 5.8582626 0 0 1 539.83203 287.26758 A 5.8582626 5.8582626 0 0 1 539.82422 287.27148 A 5.8582626 5.8582626 0 0 1 539.31641 287.50977 A 5.8582626 5.8582626 0 0 1 539.29102 287.52148 A 5.8582626 5.8582626 0 0 1 538.83984 287.67969 A 5.8582626 5.8582626 0 0 1 538.7207 287.7207 A 5.8582626 5.8582626 0 0 1 538.24805 287.83398 A 5.8582626 5.8582626 0 0 1 538.16016 287.85352 A 5.8582626 5.8582626 0 0 1 537.67383 287.91992 A 5.8582626 5.8582626 0 0 1 537.57617 287.93164 A 5.8582626 5.8582626 0 0 1 537.08789 287.95508 A 5.8582626 5.8582626 0 0 1 536.50195 287.92578 A 5.8582626 5.8582626 0 0 1 533.3125 286.57812 A 5.8582626 5.8582626 0 0 1 532.97461 286.25977 A 5.8582626 5.8582626 0 0 1 532.93359 286.21875 A 5.8582626 5.8582626 0 0 1 532.60938 285.86328 A 5.8582626 5.8582626 0 0 1 532.50977 285.74219 A 5.8582626 5.8582626 0 0 1 532.26367 285.41016 A 5.8582626 5.8582626 0 0 1 532.16211 285.25391 A 5.8582626 5.8582626 0 0 1 531.96875 284.93164 A 5.8582626 5.8582626 0 0 1 531.85938 284.72461 A 5.8582626 5.8582626 0 0 1 531.7207 284.42578 A 5.8582626 5.8582626 0 0 1 531.61328 284.1582 A 5.8582626 5.8582626 0 0 1 531.51953 283.89648 A 5.8582626 5.8582626 0 0 1 531.43359 283.60547 A 5.8582626 5.8582626 0 0 1 531.36719 283.33203 A 5.8582626 5.8582626 0 0 1 531.30859 283.01367 A 5.8582626 5.8582626 0 0 1 531.27539 282.77539 A 5.8582626 5.8582626 0 0 1 531.24219 282.37695 A 5.8582626 5.8582626 0 0 1 531.23633 282.30469 A 5.8582626 5.8582626 0 0 1 531.22656 282.09766 L 531.22852 282.09766 A 5.8582626 5.8582626 0 0 1 531.23047 282.06836 A 5.8582626 5.8582626 0 0 1 531.25 281.68945 A 5.8582626 5.8582626 0 0 1 531.27734 281.39258 A 5.8582626 5.8582626 0 0 1 531.3125 281.16016 A 5.8582626 5.8582626 0 0 1 531.38672 280.77344 A 5.8582626 5.8582626 0 0 1 531.42969 280.61328 A 5.8582626 5.8582626 0 0 1 531.54297 280.22656 A 5.8582626 5.8582626 0 0 1 531.60547 280.05664 A 5.8582626 5.8582626 0 0 1 531.76562 279.66211 A 5.8582626 5.8582626 0 0 1 531.82812 279.5332 A 5.8582626 5.8582626 0 0 1 532.04492 279.13086 A 5.8582626 5.8582626 0 0 1 532.0918 279.05078 A 5.8582626 5.8582626 0 0 1 532.37305 278.63086 A 5.8582626 5.8582626 0 0 1 532.41992 278.57031 A 5.8582626 5.8582626 0 0 1 532.73242 278.18945 A 5.8582626 5.8582626 0 0 1 532.80078 278.11523 A 5.8582626 5.8582626 0 0 1 533.16797 277.75195 A 5.8582626 5.8582626 0 0 1 533.1875 277.73438 A 5.8582626 5.8582626 0 0 1 533.625 277.37891 A 5.8582626 5.8582626 0 0 1 533.63086 277.375 A 5.8582626 5.8582626 0 0 1 533.78711 277.26367 A 5.8582626 5.8582626 0 0 1 534.25391 276.97656 A 5.8582626 5.8582626 0 0 1 534.29297 276.95508 A 5.8582626 5.8582626 0 0 1 534.73633 276.73828 A 5.8582626 5.8582626 0 0 1 534.83789 276.69336 A 5.8582626 5.8582626 0 0 1 535.27344 276.53516 A 5.8582626 5.8582626 0 0 1 535.39648 276.49414 A 5.8582626 5.8582626 0 0 1 535.78516 276.39258 A 5.8582626 5.8582626 0 0 1 535.98633 276.34766 A 5.8582626 5.8582626 0 0 1 536.34766 276.29297 A 5.8582626 5.8582626 0 0 1 536.57422 276.26562 A 5.8582626 5.8582626 0 0 1 537.08789 276.23828 z M 537.74023 402.0957 A 2.9019462 2.9019462 0 0 1 540.64258 404.99805 A 2.9019462 2.9019462 0 0 1 537.74023 407.90039 A 2.9019462 2.9019462 0 0 1 534.83789 404.99805 A 2.9019462 2.9019462 0 0 1 537.74023 402.0957 z M 423.17383 403.05273 L 428.85352 403.05273 A 1.8899528 1.8899528 0 0 1 430.18945 403.60742 L 440.00977 413.42969 A 1.8899528 1.8899528 0 0 1 440.56445 414.76562 L 440.56445 420.44336 A 1.8899528 1.8899528 0 0 1 440.00977 421.78125 L 430.18945 431.60156 A 1.8899528 1.8899528 0 0 1 428.85352 432.15625 L 423.17383 432.15625 A 1.8899528 1.8899528 0 0 1 421.83789 431.60156 L 412.01562 421.78125 A 1.8899528 1.8899528 0 0 1 411.46289 420.44336 L 411.46289 414.76562 A 1.8899528 1.8899528 0 0 1 412.01562 413.42969 L 421.83789 403.60742 A 1.8899528 1.8899528 0 0 1 423.17383 403.05273 z M 543.74023 406.0957 A 2.9019462 2.9019462 0 0 1 546.64258 408.99805 A 2.9019462 2.9019462 0 0 1 543.74023 411.90039 A 2.9019462 2.9019462 0 0 1 540.83789 408.99805 A 2.9019462 2.9019462 0 0 1 543.74023 406.0957 z M 513.86719 408.12305 L 527.75781 408.12305 A 1.8899528 1.8899528 0 0 1 529.09375 408.67773 L 533.10938 412.69336 A 1.8899528 1.8899528 0 0 1 533.66211 414.0293 L 533.66211 427.91992 A 1.8899528 1.8899528 0 0 1 533.10938 429.25586 L 529.09375 433.27148 A 1.8899528 1.8899528 0 0 1 527.75781 433.82617 L 513.86719 433.82617 A 1.8899528 1.8899528 0 0 1 512.5293 433.27148 L 508.51367 429.25586 A 1.8899528 1.8899528 0 0 1 507.96094 427.91992 L 507.96094 414.0293 A 1.8899528 1.8899528 0 0 1 508.51367 412.69336 L 512.5293 408.67773 A 1.8899528 1.8899528 0 0 1 513.86719 408.12305 z M 537.74023 410.0957 A 2.9019462 2.9019462 0 0 1 540.64258 412.99805 A 2.9019462 2.9019462 0 0 1 537.74023 415.90039 A 2.9019462 2.9019462 0 0 1 534.83789 412.99805 A 2.9019462 2.9019462 0 0 1 537.74023 410.0957 z M 543.74023 414.0957 A 2.9019462 2.9019462 0 0 1 546.64258 416.99805 A 2.9019462 2.9019462 0 0 1 543.74023 419.90039 A 2.9019462 2.9019462 0 0 1 540.83789 416.99805 A 2.9019462 2.9019462 0 0 1 543.74023 414.0957 z M 537.74023 418.0957 A 2.9019462 2.9019462 0 0 1 540.64258 420.99805 A 2.9019462 2.9019462 0 0 1 537.74023 423.90039 A 2.9019462 2.9019462 0 0 1 534.83789 420.99805 A 2.9019462 2.9019462 0 0 1 537.74023 418.0957 z M 543.74023 422.0957 A 2.9019462 2.9019462 0 0 1 546.64258 424.99805 A 2.9019462 2.9019462 0 0 1 543.74023 427.90039 A 2.9019462 2.9019462 0 0 1 540.83789 424.99805 A 2.9019462 2.9019462 0 0 1 543.74023 422.0957 z M 444.58398 424.56055 L 450.25977 424.56055 A 1.8899528 1.8899528 0 0 1 451.5957 425.11523 L 461.41992 434.93555 A 1.8899528 1.8899528 0 0 1 461.97461 436.27344 L 461.97461 441.95117 A 1.8899528 1.8899528 0 0 1 461.41992 443.28711 L 451.5957 453.10938 A 1.8899528 1.8899528 0 0 1 450.25977 453.66406 L 444.58398 453.66406 A 1.8899528 1.8899528 0 0 1 443.24805 453.10938 L 433.42383 443.28711 A 1.8899528 1.8899528 0 0 1 432.86914 441.95117 L 432.86914 436.27344 A 1.8899528 1.8899528 0 0 1 433.42383 434.93555 L 443.24805 425.11523 A 1.8899528 1.8899528 0 0 1 444.58398 424.56055 z M 513.86719 441.62305 L 527.75781 441.62305 A 1.8899528 1.8899528 0 0 1 529.09375 442.17773 L 533.10938 446.19336 A 1.8899528 1.8899528 0 0 1 533.66211 447.5293 L 533.66211 461.41992 A 1.8899528 1.8899528 0 0 1 533.10938 462.75586 L 529.09375 466.77148 A 1.8899528 1.8899528 0 0 1 527.75781 467.32617 L 513.86719 467.32617 A 1.8899528 1.8899528 0 0 1 512.5293 466.77148 L 508.51367 462.75586 A 1.8899528 1.8899528 0 0 1 507.96094 461.41992 L 507.96094 447.5293 A 1.8899528 1.8899528 0 0 1 508.51367 446.19336 L 512.5293 442.17773 A 1.8899528 1.8899528 0 0 1 513.86719 441.62305 z M 423.17383 446.18945 L 428.85352 446.18945 A 1.8899528 1.8899528 0 0 1 430.18945 446.74414 L 440.00977 456.56836 A 1.8899528 1.8899528 0 0 1 440.56445 457.9043 L 440.56445 463.58008 A 1.8899528 1.8899528 0 0 1 440.00977 464.91602 L 430.18945 474.74023 A 1.8899528 1.8899528 0 0 1 428.85352 475.29492 L 423.17383 475.29492 A 1.8899528 1.8899528 0 0 1 421.83789 474.74023 L 412.01562 464.91602 A 1.8899528 1.8899528 0 0 1 411.46289 463.58008 L 411.46289 457.9043 A 1.8899528 1.8899528 0 0 1 412.01562 456.56836 L 421.83789 446.74414 A 1.8899528 1.8899528 0 0 1 423.17383 446.18945 z M 403.09766 458.43555 A 5.8582626 5.8582626 0 0 1 408.95508 464.29492 A 5.8582626 5.8582626 0 0 1 403.09766 470.15234 A 5.8582626 5.8582626 0 0 1 397.24023 464.29492 A 5.8582626 5.8582626 0 0 1 403.09766 458.43555 z "
     transform="matrix(0.75000054,0,0,0.75000054,0,-2.6891068e-4)"
     id="rect11418" />
  <path
     style="opacity:1;fill:#ff00cc;fill-opacity:1;stroke:none;stroke-width:22.67718315;stroke-linecap:round;stroke-linejoin:round;stroke-miterlimit:4;stroke-dasharray:none;stroke-dashoffset:0;stroke-opacity:1;paint-order:markers stroke fill"
     d="m -150.69884,-4.9700471e-4 c -4.71118,0 -8.50342,3.79223510471 -8.50342,8.50342440471 V 30.935561 h 2.12841 v -6.776372 h 3.1626 V 19.24024 c 0,-1.950735 1.59274,-3.54346 3.54346,-3.54346 h 113.386318 c 1.950737,0 3.54346,1.592725 3.54346,3.54346 v 136.06211 c 0,1.95075 -1.592723,3.54346 -3.54346,3.54346 h -43.028356 v 3.19629 c 0.217883,1.33218 1.358371,2.34358 2.748055,2.36719 h 39.949244 c 4.711188,0 8.503423,-3.7937 8.503423,-8.50489 V 8.5029274 c 0,-4.7111893 -3.792235,-8.50342440471 -8.503423,-8.50342440471 z M -144.25206,4.2021427 a 4.3937001,4.3937001 0 0 1 4.39307,4.3945347 4.3937001,4.3937001 0 0 1 -4.39307,4.3930686 4.3937001,4.3937001 0 0 1 -4.39307,-4.3930686 4.3937001,4.3937001 0 0 1 4.39307,-4.3945347 z m 100.492751,0 a 4.3937001,4.3937001 0 0 1 4.394531,4.3945347 4.3937001,4.3937001 0 0 1 -4.394531,4.3930686 4.3937001,4.3937001 0 0 1 -4.393068,-4.3930686 4.3937001,4.3937001 0 0 1 4.393068,-4.3945347 z M -156.21984,26.729991 v 6.643071 h -4.44141 v 5.399418 h 4.44141 v 6.394048 h 3.0044 v -7.179204 h -2.26758 V 34.19777 h 2.26758 v -7.467779 z m -2.98242,14.567881 V 56.89261 h 1.11914 v -1.479493 a 0.70873281,0.70873281 0 0 1 0.70898,-0.708985 h 0.72364 1.10156 1.63769 v -6.921391 h -3.1626 v -6.484869 z m 1.82812,14.115245 v 2.188478 h -3.48926 v 9.880378 h 3.48926 v 2.121096 h 1.8252 V 55.413117 Z m -1.82812,12.777841 V 155.9044 c 0,4.71119 3.79224,8.50489 8.50342,8.50489 h 40.20706 c 1.41206,0 2.57741,-1.02359 2.79785,-2.37159 v -3.19189 h -42.67386 c -1.95072,0 -3.54346,-1.59271 -3.54346,-3.54346 V 70.312054 h -1.63769 -1.10156 -0.72364 a 0.70873281,0.70873281 0 0 1 -0.70898,-0.708985 v -1.412111 z"
     id="path11349"
     inkscape:connector-curvature="0" />
  <g
     partID="858464380"
     id="g664"
     transform="translate(2.1792057,-4.384568)">
    <g
       transform="translate(6.06872,147.427)"
       id="g662">
      <g
         id="g660">
        <circle
           r="4.3937001"
           cx="6.7023602"
           id="circle658"
           cy="6.7023602"
           style="fill:none;stroke:#f9a435;stroke-width:1.41732001" />
      </g>
    </g>
  </g>
  <g
     partID="858275600"
     id="g672"
     transform="translate(2.1792057,-4.384568)">
    <g
       transform="translate(23.1613,128.519)"
       id="g670">
      <g
         id="g668">
        <circle
           r="4.3937001"
           cx="6.7023602"
           id="circle666"
           cy="6.7023602"
           style="fill:none;stroke:#f9a435;stroke-width:1.41732001" />
      </g>
    </g>
  </g>
  <g
     id="g2326">
    <g
       transform="translate(2.1792057,-4.384568)"
       id="g1456"
       partID="857917710">
      <g
         id="g1454"
         transform="translate(49.2814,150.346)">
        <g
           id="g1452">
          <rect
             style="fill:#f7bd13;stroke:none;stroke-width:0;stroke-linecap:round"
             connectorname="VBUS"
             height="3.9684999"
             id="rect1436"
             width="0.992127"
             y="0"
             x="9.7086697" />
          <rect
             style="fill:#f7bd13;stroke:none;stroke-width:0;stroke-linecap:round"
             connectorname="GND"
             height="3.9684999"
             id="rect1438"
             width="0.992127"
             y="0"
             x="17.0788" />
          <rect
             style="fill:#f7bd13;stroke:none;stroke-width:0;stroke-linecap:round"
             connectorname="D-"
             height="3.9684999"
             id="rect1440"
             width="0.992127"
             y="0"
             x="11.5512" />
          <rect
             style="fill:#f7bd13;stroke:none;stroke-width:0;stroke-linecap:round"
             connectorname="D+"
             height="3.9684999"
             id="rect1442"
             width="0.992127"
             y="0"
             x="13.3937" />
          <rect
             style="fill:#f7bd13;stroke:none;stroke-width:0;stroke-linecap:round"
             connectorname="ID"
             height="3.9684999"
             id="rect1444"
             width="0.992127"
             y="0"
             x="15.2362" />
          <rect
             style="fill:#f7bd13;stroke:none;stroke-width:0;stroke-linecap:round"
             connectorname="MT1"
             height="5.3858199"
             id="rect1446"
             width="5.1023698"
             y="6.8031402"
             x="0" />
          <rect
             style="fill:#f7bd13;stroke:none;stroke-width:0;stroke-linecap:round"
             connectorname="MT2"
             height="5.3858199"
             id="rect1448"
             width="5.1023698"
             y="6.8031402"
             x="22.6772" />
          <g
             id="g1450" />
        </g>
      </g>
    </g>
    <g
       transform="translate(2.1792057,-4.384568)"
       id="g568"
       partID="858187470">
      <g
         id="g566"
         transform="translate(66.8879,150.646)">
        <g
           id="g564">
          <circle
             style="fill:#000000;stroke:#f9a435;stroke-width:0"
             cy="2.73386"
             id="nonconn0"
             cx="2.73386"
             r="1.13386" />
        </g>
      </g>
    </g>
    <g
       transform="translate(2.1792057,-4.384568)"
       id="g576"
       partID="858187450">
      <g
         id="g574"
         transform="translate(53.9866,150.646)">
        <g
           id="g572">
          <circle
             style="fill:#000000;stroke:#f9a435;stroke-width:0"
             cy="2.73386"
             id="circle570"
             cx="2.73386"
             r="1.13386" />
        </g>
      </g>
    </g>
    <g
       transform="translate(2.1792057,-4.384568)"
       id="g1828"
       partID="858187471">
      <g
         id="g1826"
         transform="translate(66.8879,150.646)">
        <g
           id="g1824">
          <circle
             style="fill:#000000;stroke:#fdde68;stroke-width:0"
             cy="2.73386"
             id="circle1822"
             cx="2.73386"
             r="1.13386" />
        </g>
      </g>
    </g>
    <g
       transform="translate(2.1792057,-4.384568)"
       id="g1836"
       partID="858187451">
      <g
         id="g1834"
         transform="translate(53.9866,150.646)">
        <g
           id="g1832">
          <circle
             style="fill:#000000;stroke:#fdde68;stroke-width:0"
             cy="2.73386"
             id="circle1830"
             cx="2.73386"
             r="1.13386" />
        </g>
      </g>
    </g>
  </g>
  <g
     id="g2261">
    <g
       transform="translate(2.1792057,-4.384568)"
       id="g584"
       partID="858099660">
      <g
         id="g582"
         transform="translate(4.50584,67.0792)">
        <g
           id="g580">
          <circle
             style="fill:#000000;stroke:#f9a435;stroke-width:0"
             cy="2.4503901"
             id="circle578"
             cx="2.4503901"
             r="0.85039198" />
        </g>
      </g>
    </g>
    <g
       transform="translate(2.1792057,-4.384568)"
       id="g592"
       partID="858099670">
      <g
         id="g590"
         transform="translate(4.50584,62.2413)">
        <g
           id="g588">
          <circle
             style="fill:#000000;stroke:#f9a435;stroke-width:0"
             cy="2.4503901"
             id="circle586"
             cx="2.4503901"
             r="0.85039198" />
        </g>
      </g>
    </g>
    <g
       transform="translate(2.1792057,-4.384568)"
       id="g1202"
       partID="858100010">
      <g
         id="g1200"
         transform="translate(6.56192,69.9029)">
        <g
           id="g1198">
          <rect
             style="fill:#fdde68;fill-opacity:1;stroke:none;stroke-width:0"
             height="0.99212801"
             id="rect1194"
             width="2.83465"
             y="1.6"
             x="1.6" />
          <g
             style="fill:none;stroke:none;stroke-width:0"
             height="0.992128"
             id="g1196"
             width="2.83465"
             y="1.6"
             x="1.6" />
        </g>
      </g>
    </g>
    <g
       transform="translate(2.1792057,-4.384568)"
       id="g1212"
       partID="858099950">
      <g
         id="g1210"
         transform="translate(6.61432,60.005)">
        <g
           id="g1208">
          <rect
             style="fill:#fdde68;fill-opacity:1;stroke:none;stroke-width:0"
             height="0.99212801"
             id="rect1204"
             width="2.83465"
             y="1.6"
             x="1.6" />
          <g
             style="fill:none;stroke:none;stroke-width:0"
             height="0.992128"
             id="g1206"
             width="2.83465"
             y="1.6"
             x="1.6" />
        </g>
      </g>
    </g>
    <g
       transform="translate(2.1792057,-4.384568)"
       id="g1222"
       partID="858100090">
      <g
         id="g1220"
         transform="translate(2.38648,70.2664)">
        <g
           id="g1218">
          <rect
             style="fill:#fdde68;fill-opacity:1;stroke:none;stroke-width:0"
             height="2.83465"
             id="rect1214"
             width="2.83465"
             y="1.6"
             x="1.6" />
          <g
             style="fill:none;stroke:none;stroke-width:0"
             height="2.83465"
             id="g1216"
             width="2.83465"
             y="1.6"
             x="1.6" />
        </g>
      </g>
    </g>
    <g
       transform="translate(2.1792057,-4.384568)"
       id="g1232"
       partID="858100060">
      <g
         id="g1230"
         transform="translate(2.40312,57.5514)">
        <g
           id="g1228">
          <rect
             style="fill:#fdde68;fill-opacity:1;stroke:none;stroke-width:0"
             height="2.83465"
             id="rect1224"
             width="2.83465"
             y="1.6"
             x="1.6" />
          <g
             style="fill:none;stroke:none;stroke-width:0"
             height="2.83465"
             id="g1226"
             width="2.83465"
             y="1.6"
             x="1.6" />
        </g>
      </g>
    </g>
    <g
       transform="translate(2.1792057,-4.384568)"
       id="g1844"
       partID="858099661">
      <g
         id="g1842"
         transform="translate(4.50584,67.0792)">
        <g
           id="g1840">
          <circle
             style="fill:#000000;stroke:#fdde68;stroke-width:0"
             cy="2.4503901"
             id="circle1838"
             cx="2.4503901"
             r="0.85039198" />
        </g>
      </g>
    </g>
    <g
       transform="translate(2.1792057,-4.384568)"
       id="g1852"
       partID="858099671">
      <g
         id="g1850"
         transform="translate(4.50584,62.2413)">
        <g
           id="g1848">
          <circle
             style="fill:#000000;stroke:#fdde68;stroke-width:0"
             cy="2.4503901"
             id="circle1846"
             cx="2.4503901"
             r="0.85039198" />
        </g>
      </g>
    </g>
  </g>
  <g
     partID="858275601"
     id="g2130"
     style="fill:#0b2228"
     transform="translate(2.1792057,-4.384568)">
    <g
       transform="translate(23.1613,128.519)"
       id="g2128"
       style="fill:#0b2228">
      <g
         id="g2126"
         style="fill:#0b2228">
        <circle
           r="4.3937001"
           cx="6.7023602"
           id="circle2124"
           cy="6.7023602"
           style="fill:#0b2228;stroke:#fdde68;stroke-width:1.41732001" />
      </g>
    </g>
  </g>
  <g
     partID="858236090"
     id="g3402"
     transform="translate(2.1792057,-4.384568)"
     style="stroke:#ab37c8;fill:#ffaaee">
    <g
       transform="translate(16.0257,22.8268)"
       id="g3400"
       style="stroke:#ab37c8;fill:#ffaaee">
      <g
         id="g3398"
         style="stroke:#ab37c8;fill:#ffaaee">
        <defs
           id="defs4" />
        <metadata
           id="metadata7">
          <rdf:RDF>
            <cc:Work
               rdf:about="">
              <dc:format>image/svg+xml</dc:format>
              <dc:type
                 rdf:resource="http://purl.org/dc/dcmitype/StillImage" />
              <dc:title></dc:title>
            </cc:Work>
          </rdf:RDF>
        </metadata>
        <g
           transform="translate(-64.4995,-114.725)"
           id="g3396"
           style="stroke:#ab37c8;fill:#ffaaee">
          <g
             id="g3394"
             style="stroke:#ab37c8;fill:#ffaaee">
            <g
               id="g3392"
               style="stroke:#ab37c8;fill:#ffaaee">
              <g
                 id="g3390"
                 style="stroke:#ab37c8;fill:#ffaaee">
                <rect
                   x="65.195"
                   y="115.42"
                   width="103.491"
                   id="rect812"
                   ry="2.7820101"
                   style="opacity:1;fill:#ffaaee;fill-opacity:1;stroke:#ab37c8;stroke-width:1.39100003;stroke-linecap:round;stroke-linejoin:round;stroke-miterlimit:4;stroke-dasharray:none;stroke-dashoffset:0;stroke-opacity:1;paint-order:markers stroke fill"
                   height="82.069199"
                   rx="2.7820101" />
              </g>
            </g>
          </g>
        </g>
      </g>
    </g>
  </g>
  <g
     id="g2223">
    <g
       transform="translate(2.1792057,-4.384568)"
       id="g1144"
       partID="858098800">
      <g
         id="g1142"
         transform="translate(3.8375,52.1674)">
        <g
           id="g1140"
           transform="rotate(-90)">
          <g
             id="g1138">
            <rect
               style="fill:#f7bd13;stroke:none;stroke-width:0;stroke-linecap:round"
               connectorname="1"
               height="4.2519598"
               id="rect1118"
               width="1.9842499"
               y="6.8076701"
               x="4.3937101" />
            <rect
               style="fill:#f7bd13;stroke:none;stroke-width:0;stroke-linecap:round"
               connectorname="2"
               height="4.2519598"
               id="rect1120"
               width="1.9842499"
               y="6.8076701"
               x="8.6456804" />
            <rect
               style="fill:#f7bd13;stroke:none;stroke-width:0;stroke-linecap:round"
               connectorname="3"
               height="4.2519598"
               id="rect1122"
               width="1.9842499"
               y="6.8076701"
               x="17.149599" />
            <rect
               style="fill:#f7bd13;stroke:none;stroke-width:0;stroke-linecap:round"
               connectorname="GND1"
               height="1.70078"
               id="rect1124"
               width="2.83465"
               y="0.287999"
               x="0" />
            <rect
               style="fill:#f7bd13;stroke:none;stroke-width:0;stroke-linecap:round"
               connectorname="GND2"
               height="2.26771"
               id="rect1126"
               width="2.83465"
               y="5.9572802"
               x="0" />
            <rect
               style="fill:#f7bd13;stroke:none;stroke-width:0;stroke-linecap:round"
               connectorname="GND3"
               height="1.70078"
               id="rect1128"
               width="2.83465"
               y="0.287999"
               x="20.6929" />
            <rect
               style="fill:#f7bd13;stroke:none;stroke-width:0;stroke-linecap:round"
               connectorname="GND4"
               height="2.26771"
               id="connector6pad"
               width="2.83465"
               y="5.9572802"
               x="20.6929" />
            <circle
               style="fill:#000000;stroke:#000000;stroke-width:0"
               cy="3.9730301"
               id="circle1131"
               cx="7.5118198"
               r="1.2755899" />
            <circle
               style="fill:#000000;stroke:#000000;stroke-width:0"
               cy="3.9730301"
               id="nonconn1"
               cx="16.0158"
               r="1.2755899" />
            <g
               id="g1136">
              <circle
                 style="fill:#000000;stroke:#000000;stroke-width:0"
                 cy="3.9730301"
                 id="nonconn2"
                 cx="7.5118198"
                 r="1.2755899" />
              <circle
                 style="fill:#000000;stroke:#000000;stroke-width:0"
                 cy="3.9730301"
                 id="nonconn3"
                 cx="16.0158"
                 r="1.2755899" />
            </g>
          </g>
        </g>
      </g>
    </g>
    <g
       transform="translate(2.1792057,-4.384568)"
       id="g3418"
       partID="858098801">
      <g
         id="g3416"
         transform="translate(3.8375,52.1674)">
        <g
           id="g3414"
           transform="rotate(-90)">
          <g
             id="g3412">
            <line
               style="stroke:#f0f0f0;stroke-width:0.57600099;stroke-linecap:round"
               id="line3404"
               x2="2.26772"
               y2="4.82342"
               y1="3.1226399"
               x1="2.26772"
               class="other" />
            <line
               style="stroke:#f0f0f0;stroke-width:0.57600099;stroke-linecap:round"
               id="line3406"
               x2="21.259899"
               y2="4.82342"
               y1="3.1226399"
               x1="21.259899"
               class="other" />
            <line
               style="stroke:#f0f0f0;stroke-width:0.57600099;stroke-linecap:round"
               id="line3408"
               x2="4.11024"
               y2="0.287999"
               y1="0.287999"
               x1="19.417299"
               class="other" />
            <line
               style="stroke:#f0f0f0;stroke-width:0.57600099;stroke-linecap:round"
               id="line3410"
               x2="11.7638"
               y2="7.6580601"
               y1="7.6580601"
               x1="16.0158"
               class="other" />
          </g>
        </g>
      </g>
    </g>
  </g>
  <g
     id="g2348">
    <g
       transform="translate(2.1792057,-4.384568)"
       id="g1286"
       partID="858464910">
      <g
         id="g1284"
         transform="translate(61.6971,124.862)">
        <g
           id="g1282"
           transform="rotate(90)">
          <g
             id="g1280">
            <rect
               style="fill:#f7bf13;fill-opacity:1;stroke:none"
               height="3.1181099"
               id="rect1276"
               width="3.4015701"
               y="0.56692898"
               x="0.56692898" />
            <rect
               style="fill:#f7bf13;fill-opacity:1;stroke:none"
               height="3.1181099"
               id="rect1278"
               width="3.4015701"
               y="0.56692898"
               x="5.3858299" />
          </g>
        </g>
      </g>
    </g>
    <g
       transform="translate(2.1792057,-4.384568)"
       id="g2172"
       partID="858466520">
      <line
         style="stroke:#f2c600;stroke-width:0.86400002;stroke-linecap:round"
         id="line2170"
         y2="125.33"
         x2="59.571098"
         y1="125.829"
         x1="59.571098" />
    </g>
    <g
       transform="translate(2.1792057,-4.384568)"
       id="g3430"
       partID="858464911">
      <g
         id="g3428"
         transform="translate(61.6971,124.862)">
        <g
           id="g3426"
           transform="rotate(90)">
          <g
             id="g3424">
            <rect
               style="fill:none;stroke:#ffffff;stroke-width:0.283465;stroke-opacity:1"
               height="3.9684999"
               id="rect7"
               width="9.0708704"
               y="0.14173201"
               x="0.14173201" />
            <g
               id="g3422"
               transform="scale(28.222223)">
              <path
                 inkscape:connector-curvature="0"
                 d="M 0.155682,0.020088 V 0.130572"
                 style="fill:none;stroke:#ffffff;stroke-width:0.010044;stroke-linecap:butt;stroke-linejoin:miter;stroke-miterlimit:4;stroke-dasharray:none;stroke-opacity:1"
                 id="path3612" />
            </g>
          </g>
        </g>
      </g>
    </g>
    <g
       transform="translate(2.1792057,-4.384568)"
       id="g4100"
       partID="858464910">
      <g
         id="g4098"
         transform="translate(64.2282,123.239)">
        <g
           id="g4096"
           transform="rotate(90)">
          <g
             style="font-style:normal;font-weight:normal;font-size:3px;font-family:OCRA;fill:#000000;fill-opacity:1;stroke:none"
             id="g4094"
             font-weight="normal"
             font-style="normal"
             font-size="3">
            <text
               id="text4092"
               y="2.25"
               x="0">STATUS</text>
          </g>
        </g>
      </g>
    </g>
  </g>
  <g
     id="g2283">
    <g
       transform="translate(2.1792057,-4.384568)"
       id="g1298"
       partID="858070310">
      <g
         id="g1296"
         transform="translate(13.0971,98.4432)">
        <g
           id="g1294"
           transform="rotate(90)">
          <g
             id="g1292">
            <rect
               style="fill:#f7bf13;fill-opacity:1;stroke:none"
               height="3.1181099"
               id="rect1288"
               width="3.4015701"
               y="0.56692898"
               x="0.56692898" />
            <rect
               style="fill:#f7bf13;fill-opacity:1;stroke:none"
               height="3.1181099"
               id="rect1290"
               width="3.4015701"
               y="0.56692898"
               x="5.3858299" />
          </g>
        </g>
      </g>
    </g>
    <g
       transform="translate(2.1792057,-4.384568)"
       id="g3348"
       partID="858070330">
      <line
         style="stroke:#f2c600;stroke-width:0.86400002;stroke-linecap:round"
         id="line3346"
         y2="100.711"
         x2="10.0955"
         y1="100.711"
         x1="10.9711" />
    </g>
    <g
       transform="translate(2.1792057,-4.384568)"
       id="g3444"
       partID="858070311">
      <g
         id="g3442"
         transform="translate(13.0971,98.4432)">
        <g
           id="g3440"
           transform="rotate(90)">
          <g
             id="g3438">
            <rect
               style="fill:none;stroke:#ffffff;stroke-width:0.283465;stroke-opacity:1"
               height="3.9684999"
               id="rect3432"
               width="9.0708704"
               y="0.14173201"
               x="0.14173201" />
            <g
               id="g3436"
               transform="scale(28.222223)">
              <path
                 inkscape:connector-curvature="0"
                 d="M 0.155682,0.020088 V 0.130572"
                 style="fill:none;stroke:#ffffff;stroke-width:0.010044;stroke-linecap:butt;stroke-linejoin:miter;stroke-miterlimit:4;stroke-dasharray:none;stroke-opacity:1"
                 id="path3434" />
            </g>
          </g>
        </g>
      </g>
    </g>
    <g
       transform="translate(2.1792057,-4.384568)"
       id="g4110"
       partID="858070310">
      <g
         id="g4108"
         transform="translate(8.04016,96.7163)">
        <g
           id="g4106"
           transform="rotate(90)">
          <g
             style="font-style:normal;font-weight:normal;font-size:3px;font-family:OCRA;fill:#000000;fill-opacity:1;stroke:none"
             id="g4104"
             font-weight="normal"
             font-style="normal"
             font-size="3">
            <text
               id="text4102"
               y="2.25"
               x="0">CHARGE</text>
          </g>
        </g>
      </g>
    </g>
  </g>
  <rect
     style="opacity:1;fill:#ff5599;fill-opacity:1;stroke:none;stroke-width:22.67718315;stroke-linecap:round;stroke-linejoin:round;stroke-miterlimit:4;stroke-dasharray:none;stroke-dashoffset:0;stroke-opacity:1;paint-order:markers stroke fill"
     id="rect6556"
     width="2.2677181"
     height="9.880353"
     x="3.7197192"
     y="57.60149" />
  <rect
     y="29.556149"
     x="3.7197192"
     height="13.039379"
     width="2.2677181"
     id="rect6558"
     style="opacity:1;fill:#ff5599;fill-opacity:1;stroke:none;stroke-width:22.67718315;stroke-linecap:round;stroke-linejoin:round;stroke-miterlimit:4;stroke-dasharray:none;stroke-dashoffset:0;stroke-opacity:1;paint-order:markers stroke fill" />
  <rect
     style="opacity:1;fill:#ff5599;fill-opacity:1;stroke:none;stroke-width:22.67718315;stroke-linecap:round;stroke-linejoin:round;stroke-miterlimit:4;stroke-dasharray:none;stroke-dashoffset:0;stroke-opacity:1;paint-order:markers stroke fill"
     id="rect6560"
     width="20.423109"
     height="6.2484322"
     x="55.062977"
     y="158.15039" />
  <g
     id="g2297">
    <g
       transform="translate(2.1792057,-4.384568)"
       id="g2068"
       partID="858287790">
      <g
         id="g2066"
         transform="translate(120.571,118.33)">
        <g
           id="g2064"
           transform="rotate(90)">
          <g
             id="g2062">
            <rect
               style="fill:#fdde68;fill-opacity:1;stroke:none;stroke-width:0"
               height="7.1999998"
               id="rect2058"
               width="3.5999999"
               y="1.6"
               x="1.6" />
            <g
               style="fill:none;stroke:none;stroke-width:0"
               height="7.2"
               id="g2060"
               width="3.6"
               y="1.6"
               x="1.6" />
          </g>
        </g>
      </g>
    </g>
    <g
       transform="translate(2.1792057,-4.384568)"
       id="g2080"
       partID="858287750">
      <g
         id="g2078"
         transform="translate(110.171,112.53)">
        <g
           id="g2076"
           transform="rotate(-90)">
          <g
             id="g2074">
            <rect
               style="fill:#fdde68;fill-opacity:1;stroke:none;stroke-width:0"
               height="7.1999998"
               id="rect2070"
               width="3.5999999"
               y="1.6"
               x="1.6" />
            <g
               style="fill:none;stroke:none;stroke-width:0"
               height="7.2"
               id="g2072"
               width="3.6"
               y="1.6"
               x="1.6" />
          </g>
        </g>
      </g>
    </g>
  </g>
  <g
     id="g11130">
    <circle
       r="2.1764612"
       cy="114.29122"
       cx="120.43214"
       id="path6562"
       style="opacity:1;fill:#ff5599;fill-opacity:1;stroke:none;stroke-width:22.67718315;stroke-linecap:round;stroke-linejoin:round;stroke-miterlimit:4;stroke-dasharray:none;stroke-dashoffset:0;stroke-opacity:1;paint-order:markers stroke fill" />
    <circle
       style="opacity:1;fill:#ff5599;fill-opacity:1;stroke:none;stroke-width:22.67718315;stroke-linecap:round;stroke-linejoin:round;stroke-miterlimit:4;stroke-dasharray:none;stroke-dashoffset:0;stroke-opacity:1;paint-order:markers stroke fill"
       id="circle6564"
       cx="115.93214"
       cy="111.29121"
       r="2.1764612" />
    <circle
       r="2.1764612"
       cy="108.29122"
       cx="120.43214"
       id="circle6568"
       style="opacity:1;fill:#ff5599;fill-opacity:1;stroke:none;stroke-width:22.67718315;stroke-linecap:round;stroke-linejoin:round;stroke-miterlimit:4;stroke-dasharray:none;stroke-dashoffset:0;stroke-opacity:1;paint-order:markers stroke fill" />
    <circle
       style="opacity:1;fill:#ff5599;fill-opacity:1;stroke:none;stroke-width:22.67718315;stroke-linecap:round;stroke-linejoin:round;stroke-miterlimit:4;stroke-dasharray:none;stroke-dashoffset:0;stroke-opacity:1;paint-order:markers stroke fill"
       id="circle6570"
       cx="115.93214"
       cy="117.29122"
       r="2.1764612" />
    <circle
       r="2.1764612"
       cy="105.29122"
       cx="115.93214"
       id="circle6572"
       style="opacity:1;fill:#ff5599;fill-opacity:1;stroke:none;stroke-width:22.67718315;stroke-linecap:round;stroke-linejoin:round;stroke-miterlimit:4;stroke-dasharray:none;stroke-dashoffset:0;stroke-opacity:1;paint-order:markers stroke fill" />
    <circle
       r="2.1764612"
       cy="120.29122"
       cx="120.43214"
       id="circle6574"
       style="opacity:1;fill:#ff5599;fill-opacity:1;stroke:none;stroke-width:22.67718315;stroke-linecap:round;stroke-linejoin:round;stroke-miterlimit:4;stroke-dasharray:none;stroke-dashoffset:0;stroke-opacity:1;paint-order:markers stroke fill" />
  </g>
  <rect
     style="opacity:1;fill:#cd87de;fill-opacity:1;stroke:none;stroke-width:22.67718315;stroke-linecap:round;stroke-linejoin:round;stroke-miterlimit:4;stroke-dasharray:none;stroke-dashoffset:0;stroke-opacity:1;paint-order:markers stroke fill"
     id="rect6584"
     width="72.750053"
     height="72.750046"
     x="26.250019"
     y="24.159191"
     ry="0" />
  <path
     style="opacity:1;fill:#ff00cc;fill-opacity:1;stroke:none;stroke-width:22.67718315;stroke-linecap:round;stroke-linejoin:round;stroke-miterlimit:4;stroke-dasharray:none;stroke-dashoffset:0;stroke-opacity:1;paint-order:markers stroke fill"
     d="m -424.95587,1.0010645 c -4.71118,0 -8.50343,3.7922378 -8.50343,8.5034244 V 156.90596 c 0,4.71119 3.79225,8.50489 8.50343,8.50489 h 40.20705 c 1.41206,0 2.5774,-1.0236 2.79786,-2.37158 l 0.006,-0.0103 c 0.25102,-1.31032 1.39611,-2.29541 2.78174,-2.29541 h 22.1089 c 1.38767,0 2.53445,0.98806 2.78321,2.30127 l 0.004,0.009 c 0.21788,1.33218 1.35839,2.34359 2.74805,2.36719 h 39.94925 c 4.71118,0 8.50342,-3.7937 8.50342,-8.50489 V 9.5044889 c 0,-4.7111866 -3.79224,-8.5034244 -8.50342,-8.5034244 z m 6.44678,4.2026397 a 4.3937001,4.3937001 0 0 1 4.39307,4.3945347 4.3937001,4.3937001 0 0 1 -4.39307,4.3930691 4.3937001,4.3937001 0 0 1 -4.39307,-4.3930691 4.3937001,4.3937001 0 0 1 4.39307,-4.3945347 z m 100.49275,0 a 4.3937001,4.3937001 0 0 1 4.39453,4.3945347 4.3937001,4.3937001 0 0 1 -4.39453,4.3930691 4.3937001,4.3937001 0 0 1 -4.39307,-4.3930691 4.3937001,4.3937001 0 0 1 4.39307,-4.3945347 z m 0.48925,98.9121858 a 2.1764612,2.1764612 0 0 1 2.17676,2.17675 2.1764612,2.1764612 0 0 1 -2.17676,2.17677 2.1764612,2.1764612 0 0 1 -2.17675,-2.17677 2.1764612,2.1764612 0 0 1 2.17675,-2.17675 z m -85.92486,0.71777 h 4.25977 a 1.4174656,1.4174656 0 0 1 1.00195,0.41602 l 7.36524,7.3667 a 1.4174656,1.4174656 0 0 1 0.41602,1.00195 v 4.2583 a 1.4174656,1.4174656 0 0 1 -0.41602,1.00343 l -7.36524,7.36524 a 1.4174656,1.4174656 0 0 1 -1.00195,0.41601 h -4.25977 a 1.4174656,1.4174656 0 0 1 -1.00195,-0.41601 l -7.36671,-7.36524 a 1.4174656,1.4174656 0 0 1 -0.41455,-1.00343 v -4.2583 a 1.4174656,1.4174656 0 0 1 0.41455,-1.00195 l 7.36671,-7.3667 a 1.4174656,1.4174656 0 0 1 1.00195,-0.41602 z m 90.42487,2.28223 a 2.1764612,2.1764612 0 0 1 2.17676,2.17675 2.1764612,2.1764612 0 0 1 -2.17676,2.17677 2.1764612,2.1764612 0 0 1 -2.17676,-2.17677 2.1764612,2.1764612 0 0 1 2.17676,-2.17675 z m -22.4048,1.5205 h 10.41797 a 1.4174656,1.4174656 0 0 1 1.00196,0.41602 l 3.01172,3.01172 a 1.4174656,1.4174656 0 0 1 0.41455,1.00196 v 10.41798 a 1.4174656,1.4174656 0 0 1 -0.41455,1.00194 l -3.01172,3.01173 a 1.4174656,1.4174656 0 0 1 -1.00196,0.41602 h -10.41797 a 1.4174656,1.4174656 0 0 1 -1.00342,-0.41602 l -3.01172,-3.01173 a 1.4174656,1.4174656 0 0 1 -0.41455,-1.00194 v -10.41798 a 1.4174656,1.4174656 0 0 1 0.41455,-1.00196 l 3.01172,-3.01172 a 1.4174656,1.4174656 0 0 1 1.00342,-0.41602 z m 17.90479,1.4795 a 2.1764612,2.1764612 0 0 1 2.17676,2.17676 2.1764612,2.1764612 0 0 1 -2.17676,2.17676 2.1764612,2.1764612 0 0 1 -2.17675,-2.17676 2.1764612,2.1764612 0 0 1 2.17675,-2.17676 z m 4.50001,3 a 2.1764612,2.1764612 0 0 1 2.17676,2.17676 2.1764612,2.1764612 0 0 1 -2.17676,2.17676 2.1764612,2.1764612 0 0 1 -2.17676,-2.17676 2.1764612,2.1764612 0 0 1 2.17676,-2.17676 z m -4.50001,3 a 2.1764612,2.1764612 0 0 1 2.17676,2.17676 2.1764612,2.1764612 0 0 1 -2.17676,2.17677 2.1764612,2.1764612 0 0 1 -2.17675,-2.17677 2.1764612,2.1764612 0 0 1 2.17675,-2.17676 z m 4.50001,3.00001 a 2.1764612,2.1764612 0 0 1 2.17676,2.17675 2.1764612,2.1764612 0 0 1 -2.17676,2.17677 2.1764612,2.1764612 0 0 1 -2.17676,-2.17677 2.1764612,2.1764612 0 0 1 2.17676,-2.17675 z m -106.73885,1.84863 h 4.2583 a 1.4174656,1.4174656 0 0 1 1.00196,0.41602 l 7.36671,7.36523 a 1.4174656,1.4174656 0 0 1 0.41601,1.00342 v 4.25831 a 1.4174656,1.4174656 0 0 1 -0.41601,1.00195 l -7.36671,7.36671 a 1.4174656,1.4174656 0 0 1 -1.00196,0.41601 h -4.2583 a 1.4174656,1.4174656 0 0 1 -1.00342,-0.41601 l -7.36523,-7.36671 a 1.4174656,1.4174656 0 0 1 -0.41602,-1.00195 v -4.25831 a 1.4174656,1.4174656 0 0 1 0.41602,-1.00342 l 7.36523,-7.36523 a 1.4174656,1.4174656 0 0 1 1.00342,-0.41602 z m 32.37161,0 h 4.25684 a 1.4174656,1.4174656 0 0 1 1.00195,0.41602 l 7.36817,7.36523 a 1.4174656,1.4174656 0 0 1 0.41601,1.00342 v 4.25831 a 1.4174656,1.4174656 0 0 1 -0.41601,1.00195 l -7.36817,7.36671 a 1.4174656,1.4174656 0 0 1 -1.00195,0.41601 h -4.25684 a 1.4174656,1.4174656 0 0 1 -1.00196,-0.41601 l -7.36817,-7.36671 a 1.4174656,1.4174656 0 0 1 -0.41601,-1.00195 v -4.25831 a 1.4174656,1.4174656 0 0 1 0.41601,-1.00342 l 7.36817,-7.36523 a 1.4174656,1.4174656 0 0 1 1.00196,-0.41602 z m 51.96244,12.79688 h 10.41797 a 1.4174656,1.4174656 0 0 1 1.00196,0.41602 l 3.01172,3.01172 a 1.4174656,1.4174656 0 0 1 0.41455,1.00195 v 10.41798 a 1.4174656,1.4174656 0 0 1 -0.41455,1.00195 l -3.01172,3.01173 a 1.4174656,1.4174656 0 0 1 -1.00196,0.41601 h -10.41797 a 1.4174656,1.4174656 0 0 1 -1.00342,-0.41601 l -3.01172,-3.01173 a 1.4174656,1.4174656 0 0 1 -0.41455,-1.00195 V 138.1911 a 1.4174656,1.4174656 0 0 1 0.41455,-1.00195 l 3.01172,-3.01172 a 1.4174656,1.4174656 0 0 1 1.00342,-0.41602 z m -68.02007,3.42481 h 4.25977 a 1.4174656,1.4174656 0 0 1 1.00195,0.41602 l 7.36524,7.36816 a 1.4174656,1.4174656 0 0 1 0.41602,1.00196 v 4.25684 a 1.4174656,1.4174656 0 0 1 -0.41602,1.00195 l -7.36524,7.36817 a 1.4174656,1.4174656 0 0 1 -1.00195,0.41602 h -4.25977 a 1.4174656,1.4174656 0 0 1 -1.00195,-0.41602 l -7.36671,-7.36817 a 1.4174656,1.4174656 0 0 1 -0.41455,-1.00195 v -4.25684 a 1.4174656,1.4174656 0 0 1 0.41455,-1.00196 l 7.36671,-7.36816 a 1.4174656,1.4174656 0 0 1 1.00195,-0.41602 z m -15.05714,9.16553 a 4.3937001,4.3937001 0 0 1 4.39307,4.39454 4.3937001,4.3937001 0 0 1 -4.39307,4.39307 4.3937001,4.3937001 0 0 1 -4.39307,-4.39307 4.3937001,4.3937001 0 0 1 4.39307,-4.39454 z"
     id="circle11142"
     inkscape:connector-curvature="0" />
  <path
     id="path11271"
     style="opacity:1;fill:#ff00cc;fill-opacity:1;stroke:none;stroke-width:22.67718315;stroke-linecap:round;stroke-linejoin:round;stroke-miterlimit:4;stroke-dasharray:none;stroke-dashoffset:0;stroke-opacity:1;paint-order:markers stroke fill"
     d="m -283.13745,145.35002 a 4.3937001,4.3937001 0 0 1 4.39307,4.39454 4.3937001,4.3937001 0 0 1 -4.39307,4.39307 4.3937001,4.3937001 0 0 1 -4.39307,-4.39307 4.3937001,4.3937001 0 0 1 4.39307,-4.39454 z M -182.6447,4.2019866 a 4.3937001,4.3937001 0 0 1 4.39454,4.3945347 4.3937001,4.3937001 0 0 1 -4.39454,4.3930687 4.3937001,4.3937001 0 0 1 -4.39307,-4.3930687 4.3937001,4.3937001 0 0 1 4.39307,-4.3945347 z m -100.49275,0 a 4.3937001,4.3937001 0 0 1 4.39307,4.3945347 4.3937001,4.3937001 0 0 1 -4.39307,4.3930687 4.3937001,4.3937001 0 0 1 -4.39307,-4.3930687 4.3937001,4.3937001 0 0 1 4.39307,-4.3945347 z m -6.44678,-4.20263972975 c -4.71118,0 -8.50342,3.79223782975 -8.50342,8.50342442975 V 155.90423 c 0,4.71119 3.79224,8.50489 8.50342,8.50489 h 40.20706 c 1.41205,0 2.5774,-1.0236 2.79785,-2.37158 l 0.006,-0.0103 c 0.25103,-1.31032 1.39611,-2.29541 2.78174,-2.29541 h 22.1089 c 1.38768,0 2.53446,0.98806 2.78321,2.30127 l 0.004,0.009 c 0.21788,1.33218 1.35838,2.34359 2.74805,2.36719 h 39.94924 c 4.71118,0 8.50343,-3.7937 8.50343,-8.50489 V 8.5027713 c 0,-4.7111866 -3.79225,-8.50342442975 -8.50343,-8.50342442975 z" />
  <path
     style="opacity:1;fill:#88aa00;fill-opacity:1;stroke:none;stroke-width:1.88976395;stroke-linecap:round;stroke-linejoin:round;stroke-miterlimit:4;stroke-dasharray:none;stroke-dashoffset:0;stroke-opacity:1;paint-order:markers stroke fill"
     d="M 232.33789 270.36133 C 226.0563 270.36133 221 275.41764 221 281.69922 L 221 298.12109 L 221 343.41992 L 221 427.52539 L 221 464.41992 L 221 470.41992 C 221 476.7015 226.0563 481.75977 232.33789 481.75977 L 368.40039 481.75977 C 374.68197 481.75977 379.74023 476.7015 379.74023 470.41992 L 379.74023 464.41992 L 379.74023 427.52539 L 379.74023 343.41992 L 379.74023 298.12109 L 379.74023 281.69922 C 379.74023 275.41764 374.68197 270.36133 368.40039 270.36133 L 232.33789 270.36133 z M 232.93359 276.38672 A 5.8582626 5.8582626 0 0 1 233.51758 276.41602 A 5.8582626 5.8582626 0 0 1 234.66406 276.64844 A 5.8582626 5.8582626 0 0 1 235.21484 276.84961 A 5.8582626 5.8582626 0 0 1 237.42969 278.49805 A 5.8582626 5.8582626 0 0 1 237.4707 278.54492 A 5.8582626 5.8582626 0 0 1 238.79102 282.24609 A 5.8582626 5.8582626 0 0 1 237.79688 285.50195 C 237.79715 285.50319 237.79658 285.50463 237.79688 285.50586 A 5.8582626 5.8582626 0 0 1 237.7832 285.52539 A 5.8582626 5.8582626 0 0 1 237.61523 285.75 A 5.8582626 5.8582626 0 0 1 237.42188 286.00195 A 5.8582626 5.8582626 0 0 1 237.24023 286.19922 A 5.8582626 5.8582626 0 0 1 237.03516 286.41992 A 5.8582626 5.8582626 0 0 1 236.63281 286.7832 L 236.63086 286.7832 A 5.8582626 5.8582626 0 0 1 232.93359 288.10156 A 5.8582626 5.8582626 0 0 1 229.67578 287.10938 C 229.67455 287.10965 229.67309 287.10908 229.67188 287.10938 A 5.8582626 5.8582626 0 0 1 229.6543 287.0957 A 5.8582626 5.8582626 0 0 1 229.25391 286.79492 A 5.8582626 5.8582626 0 0 1 229.19922 286.75391 A 5.8582626 5.8582626 0 0 1 228.89062 286.47461 A 5.8582626 5.8582626 0 0 1 228.75586 286.34766 A 5.8582626 5.8582626 0 0 1 228.51953 286.08594 A 5.8582626 5.8582626 0 0 1 228.36719 285.91016 A 5.8582626 5.8582626 0 0 1 228.08594 285.52344 A 5.8582626 5.8582626 0 0 1 228.03125 285.44727 A 5.8582626 5.8582626 0 0 1 227.83398 285.11133 A 5.8582626 5.8582626 0 0 1 227.72852 284.92578 A 5.8582626 5.8582626 0 0 1 227.52539 284.48633 A 5.8582626 5.8582626 0 0 1 227.49219 284.41211 A 5.8582626 5.8582626 0 0 1 227.30469 283.86328 A 5.8582626 5.8582626 0 0 1 227.17188 283.29492 A 5.8582626 5.8582626 0 0 0 227.17188 283.29297 A 5.8582626 5.8582626 0 0 1 227.10156 282.76172 A 5.8582626 5.8582626 0 0 1 227.0957 282.70508 A 5.8582626 5.8582626 0 0 1 227.07422 282.24414 A 5.8582626 5.8582626 0 0 1 228.45312 278.4707 A 5.8582626 5.8582626 0 0 0 228.45312 278.46875 A 5.8582626 5.8582626 0 0 1 228.85156 278.04297 A 5.8582626 5.8582626 0 0 1 229.76758 277.31445 A 5.8582626 5.8582626 0 0 1 230.27539 277.02344 A 5.8582626 5.8582626 0 0 1 231.36719 276.59961 A 5.8582626 5.8582626 0 0 1 232.93359 276.38672 z M 366.92383 276.38672 A 5.8582626 5.8582626 0 0 1 366.95312 276.38867 A 5.8582626 5.8582626 0 0 1 371.64648 278.78906 A 5.8582626 5.8582626 0 0 1 372.7832 282.24609 A 5.8582626 5.8582626 0 0 1 371.46289 285.93359 L 371.46289 285.94336 A 5.8582626 5.8582626 0 0 1 371.41211 285.99805 A 5.8582626 5.8582626 0 0 1 371.30078 286.12305 A 5.8582626 5.8582626 0 0 1 371.02734 286.41602 A 5.8582626 5.8582626 0 0 1 370.88477 286.54492 A 5.8582626 5.8582626 0 0 1 370.56445 286.82422 A 5.8582626 5.8582626 0 0 1 370.55859 286.83008 A 5.8582626 5.8582626 0 0 1 370.38086 286.9668 C 370.37825 286.96634 370.37566 286.9653 370.37305 286.96484 A 5.8582626 5.8582626 0 0 1 366.92578 288.10352 A 5.8582626 5.8582626 0 0 1 363.22656 286.7832 A 5.8582626 5.8582626 0 0 1 362.80469 286.40234 A 5.8582626 5.8582626 0 0 1 362.78906 286.38672 A 5.8582626 5.8582626 0 0 1 362.39844 285.95703 A 5.8582626 5.8582626 0 0 1 362.04883 285.48633 A 5.8582626 5.8582626 0 0 1 361.75391 284.99023 A 5.8582626 5.8582626 0 0 1 361.75 284.98242 A 5.8582626 5.8582626 0 0 1 361.51172 284.47461 A 5.8582626 5.8582626 0 0 1 361.5 284.44922 A 5.8582626 5.8582626 0 0 1 361.3418 283.99805 A 5.8582626 5.8582626 0 0 1 361.30078 283.87891 A 5.8582626 5.8582626 0 0 1 361.1875 283.40625 A 5.8582626 5.8582626 0 0 1 361.16797 283.31836 A 5.8582626 5.8582626 0 0 1 361.10156 282.83203 A 5.8582626 5.8582626 0 0 1 361.08984 282.73438 A 5.8582626 5.8582626 0 0 1 361.06641 282.24609 A 5.8582626 5.8582626 0 0 1 361.0957 281.66016 A 5.8582626 5.8582626 0 0 1 362.44336 278.4707 A 5.8582626 5.8582626 0 0 1 366.7168 276.39453 A 5.8582626 5.8582626 0 0 1 366.92383 276.38672 z M 232.93359 458.58398 A 5.8582626 5.8582626 0 0 1 238.79102 464.44336 A 5.8582626 5.8582626 0 0 1 232.93359 470.30078 A 5.8582626 5.8582626 0 0 1 227.07617 464.44336 A 5.8582626 5.8582626 0 0 1 232.93359 458.58398 z "
     transform="matrix(0.75000054,0,0,0.75000054,0,-2.6891068e-4)"
     id="path11509" />
</svg>
