<?xml version="1.0" encoding="UTF-8" standalone="no"?>
<svg
   xmlns:dc="http://purl.org/dc/elements/1.1/"
   xmlns:cc="http://creativecommons.org/ns#"
   xmlns:rdf="http://www.w3.org/1999/02/22-rdf-syntax-ns#"
   xmlns:svg="http://www.w3.org/2000/svg"
   xmlns="http://www.w3.org/2000/svg"
   id="svg11542"
   version="1.1"
   viewBox="0 0 84.001038 55.933506"
   height="55.933506mm"
   width="84.001038mm">
  <defs
     id="defs11536" />
  <metadata
     id="metadata11539">
    <rdf:RDF>
      <cc:Work
         rdf:about="">
        <dc:format>image/svg+xml</dc:format>
        <dc:type
           rdf:resource="http://purl.org/dc/dcmitype/StillImage" />
        <dc:title></dc:title>
      </cc:Work>
    </rdf:RDF>
  </metadata>
  <g
     transform="translate(5.0000002e-4,5.0922074e-4)"
     id="layer1">
    <path
       id="path11509"
       d="M 2.9998164,-9.2207117e-6 C 1.3378124,-9.2207117e-6 0,1.3378058 0,2.9998078 v 4.344953 11.9853142 22.252906 9.761677 1.5875 c 0,1.662 1.3378124,3.00034 2.9998164,3.00034 H 38.999686 c 1.662001,0 3.000332,-1.33834 3.000332,-3.00034 V 51.344658 41.582981 19.330075 7.3447608 2.9998078 c 0,-1.662002 -1.338331,-2.9998170207117 -3.000332,-2.9998170207117 z M 3.1574294,1.5942088 a 1.5499986,1.5499986 0 0 1 0.154514,0.0078 1.5499986,1.5499986 0 0 1 0.303339,0.06149 1.5499986,1.5499986 0 0 1 0.145727,0.05323 1.5499986,1.5499986 0 0 1 0.586013,0.436149 1.5499986,1.5499986 0 0 1 0.01085,0.01241 1.5499986,1.5499986 0 0 1 0.349334,0.979268 1.5499986,1.5499986 0 0 1 -0.263032,0.861447 c 7.1e-5,2.64e-4 -8e-5,7.93e-4 0,0.0011 a 1.5499986,1.5499986 0 0 1 -0.0036,0.0052 1.5499986,1.5499986 0 0 1 -0.04444,0.05943 1.5499986,1.5499986 0 0 1 -0.05116,0.06666 1.5499986,1.5499986 0 0 1 -0.04806,0.05219 1.5499986,1.5499986 0 0 1 -0.05426,0.05839 1.5499986,1.5499986 0 0 1 -0.106455,0.09612 h -5.34e-4 a 1.5499986,1.5499986 0 0 1 -0.978236,0.348816 1.5499986,1.5499986 0 0 1 -0.861963,-0.262514 c -2.64e-4,7.1e-5 -7.93e-4,-8e-5 -0.0011,0 a 1.5499986,1.5499986 0 0 1 -0.0047,-0.0036 1.5499986,1.5499986 0 0 1 -0.105936,-0.07958 1.5499986,1.5499986 0 0 1 -0.01447,-0.01085 1.5499986,1.5499986 0 0 1 -0.08165,-0.0739 1.5499986,1.5499986 0 0 1 -0.03566,-0.03359 1.5499986,1.5499986 0 0 1 -0.06253,-0.06925 1.5499986,1.5499986 0 0 1 -0.04031,-0.04651 1.5499986,1.5499986 0 0 1 -0.07441,-0.102319 1.5499986,1.5499986 0 0 1 -0.01447,-0.02016 1.5499986,1.5499986 0 0 1 -0.05219,-0.08888 1.5499986,1.5499986 0 0 1 -0.0279,-0.04909 1.5499986,1.5499986 0 0 1 -0.05374,-0.116271 1.5499986,1.5499986 0 0 1 -0.0088,-0.01963 1.5499986,1.5499986 0 0 1 -0.04961,-0.145212 1.5499986,1.5499986 0 0 1 -0.03514,-0.150378 1.5499986,1.5499986 0 0 0 0,-5.29e-4 1.5499986,1.5499986 0 0 1 -0.0186,-0.14056 1.5499986,1.5499986 0 0 1 -0.0016,-0.01497 1.5499986,1.5499986 0 0 1 -0.0057,-0.121957 1.5499986,1.5499986 0 0 1 0.364834,-0.99839 1.5499986,1.5499986 0 0 0 0,-5.29e-4 1.5499986,1.5499986 0 0 1 0.105421,-0.112654 1.5499986,1.5499986 0 0 1 0.242363,-0.192754 1.5499986,1.5499986 0 0 1 0.134358,-0.077 1.5499986,1.5499986 0 0 1 0.288872,-0.112139 1.5499986,1.5499986 0 0 1 0.414444,-0.05633 z m 35.4515826,0 a 1.5499986,1.5499986 0 0 1 0.0078,5.29e-4 1.5499986,1.5499986 0 0 1 1.241784,0.635103 1.5499986,1.5499986 0 0 1 0.300758,0.914672 1.5499986,1.5499986 0 0 1 -0.349332,0.975652 v 0.0027 a 1.5499986,1.5499986 0 0 1 -0.01344,0.01447 1.5499986,1.5499986 0 0 1 -0.02946,0.03307 1.5499986,1.5499986 0 0 1 -0.07235,0.07752 1.5499986,1.5499986 0 0 1 -0.03772,0.0341 1.5499986,1.5499986 0 0 1 -0.08475,0.0739 1.5499986,1.5499986 0 0 1 -0.0016,0.0016 1.5499986,1.5499986 0 0 1 -0.04702,0.03617 c -7.94e-4,-1.22e-4 -0.0013,-2.65e-4 -0.0021,-5.3e-4 a 1.5499986,1.5499986 0 0 1 -0.912144,0.301269 1.5499986,1.5499986 0 0 1 -0.978752,-0.349335 1.5499986,1.5499986 0 0 1 -0.111619,-0.100769 1.5499986,1.5499986 0 0 1 -0.0041,-0.0041 1.5499986,1.5499986 0 0 1 -0.103351,-0.113689 1.5499986,1.5499986 0 0 1 -0.0925,-0.124539 1.5499986,1.5499986 0 0 1 -0.07803,-0.13126 1.5499986,1.5499986 0 0 1 -0.0011,-0.0021 1.5499986,1.5499986 0 0 1 -0.06305,-0.134358 1.5499986,1.5499986 0 0 1 -0.0031,-0.0067 1.5499986,1.5499986 0 0 1 -0.04186,-0.119372 1.5499986,1.5499986 0 0 1 -0.01085,-0.03152 1.5499986,1.5499986 0 0 1 -0.02997,-0.125058 1.5499986,1.5499986 0 0 1 -0.0052,-0.02326 1.5499986,1.5499986 0 0 1 -0.01757,-0.128675 1.5499986,1.5499986 0 0 1 -0.0031,-0.02582 1.5499986,1.5499986 0 0 1 -0.0062,-0.129193 1.5499986,1.5499986 0 0 1 0.0078,-0.155028 1.5499986,1.5499986 0 0 1 0.356569,-0.843878 1.5499986,1.5499986 0 0 1 1.130681,-0.54932 1.5499986,1.5499986 0 0 1 0.05478,-0.0021 z M 3.1574294,49.800568 a 1.5499986,1.5499986 0 0 1 1.549778,1.55029 1.5499986,1.5499986 0 0 1 -1.549778,1.54978 1.5499986,1.5499986 0 0 1 -1.549776,-1.54978 1.5499986,1.5499986 0 0 1 1.549776,-1.55029 z"
       style="opacity:1;fill:none;fill-opacity:1;stroke:#0000ff;stroke-width:0.001;stroke-linecap:round;stroke-linejoin:round;stroke-miterlimit:4;stroke-dasharray:none;stroke-dashoffset:0;stroke-opacity:1;paint-order:markers stroke fill" />
    <path
       id="rect11418"
       d="m 44.999835,-9.2207106e-6 c -1.662001,0 -2.999817,1.3378150207106 -2.999817,2.9998170207106 v 4.344956 11.9853122 22.252909 1.76165 l 2.360062,-2.360067 a 0.50005001,0.50005001 0 0 1 0.353986,-0.146759 h 1.502233 a 0.50005001,0.50005001 0 0 1 0.353468,0.146759 l 2.598806,2.598297 a 0.50005001,0.50005001 0 0 1 0.146762,0.35398 v 1.502232 a 0.50005001,0.50005001 0 0 1 -0.146762,0.35347 l -2.598806,2.59881 a 0.50005001,0.50005001 0 0 1 -0.353468,0.14676 h -1.502233 a 0.50005001,0.50005001 0 0 1 -0.353986,-0.14676 l -2.360062,-2.36058 v 5.31389 1.5875 c 0,1.66199 1.337816,3.00033 2.999817,3.00033 h 35.99987 c 1.662004,0 3.000335,-1.33834 3.000335,-3.00033 V 51.344667 41.582985 19.330076 7.3447638 2.9998078 c 0,-1.662002 -1.338331,-2.9998170207106 -3.000335,-2.9998170207106 z M 45.15745,1.5942088 a 1.5499986,1.5499986 0 0 1 0.0078,5.29e-4 1.5499986,1.5499986 0 0 1 0.0041,0 1.5499986,1.5499986 0 0 1 0.0832,0.0041 1.5499986,1.5499986 0 0 1 0.09818,0.0088 1.5499986,1.5499986 0 0 1 0.05013,0.0078 1.5499986,1.5499986 0 0 1 0.109037,0.02119 1.5499986,1.5499986 0 0 1 0.03359,0.0083 1.5499986,1.5499986 0 0 1 0.114721,0.03411 1.5499986,1.5499986 0 0 1 0.03411,0.01291 1.5499986,1.5499986 0 0 1 0.111622,0.04548 1.5499986,1.5499986 0 0 1 0.02687,0.01291 1.5499986,1.5499986 0 0 1 0.114721,0.0615 1.5499986,1.5499986 0 0 1 0.0155,0.0093 1.5499986,1.5499986 0 0 1 0.111104,0.07441 1.5499986,1.5499986 0 0 1 0.02222,0.01654 1.5499986,1.5499986 0 0 1 0.09612,0.07906 1.5499986,1.5499986 0 0 1 0.02376,0.02222 1.5499986,1.5499986 0 0 1 0.08837,0.0894 1.5499986,1.5499986 0 0 1 0.0155,0.01757 1.5499986,1.5499986 0 0 1 0.08526,0.104905 1.5499986,1.5499986 0 0 1 0.0036,0.0047 1.5499986,1.5499986 0 0 1 0.02842,0.03979 1.5499986,1.5499986 0 0 1 0.0021,0.0031 1.5499986,1.5499986 0 0 1 0.07493,0.121957 1.5499986,1.5499986 0 0 1 0.0041,0.0072 1.5499986,1.5499986 0 0 1 0.0016,0.0031 1.5499986,1.5499986 0 0 1 0.05374,0.110588 1.5499986,1.5499986 0 0 1 0.01707,0.03876 1.5499986,1.5499986 0 0 1 0.03669,0.09973 1.5499986,1.5499986 0 0 1 0.0155,0.04651 1.5499986,1.5499986 0 0 1 0.02326,0.09095 1.5499986,1.5499986 0 0 1 0.0155,0.0677 1.5499986,1.5499986 0 0 1 0.01085,0.07183 1.5499986,1.5499986 0 0 1 0.01035,0.08578 1.5499986,1.5499986 0 0 1 0.0052,0.09509 1.5499986,1.5499986 0 0 1 0.0016,0.03256 1.5499986,1.5499986 0 0 1 -0.0078,0.140559 1.5499986,1.5499986 0 0 1 -0.01138,0.0863 1.5499986,1.5499986 0 0 1 -0.0098,0.06356 1.5499986,1.5499986 0 0 1 -0.02479,0.102836 1.5499986,1.5499986 0 0 1 -0.01138,0.04496 1.5499986,1.5499986 0 0 1 -0.03617,0.103868 1.5499986,1.5499986 0 0 1 -0.01497,0.04238 1.5499986,1.5499986 0 0 1 -0.04859,0.104375 1.5499986,1.5499986 0 0 1 -0.01707,0.03462 1.5499986,1.5499986 0 0 1 -0.07545,0.12764 1.5499986,1.5499986 0 0 1 -0.09199,0.125574 v 0.0016 a 1.5499986,1.5499986 0 0 1 -0.0067,0.0072 1.5499986,1.5499986 0 0 1 -0.21549,0.214974 h -0.0031 a 1.5499986,1.5499986 0 0 1 -0.01241,0.01085 1.5499986,1.5499986 0 0 1 -0.0016,0.0016 1.5499986,1.5499986 0 0 1 -0.04702,0.03617 c -7.94e-4,0 -0.0013,-2.65e-4 -0.0021,-5.29e-4 a 1.5499986,1.5499986 0 0 1 -0.912081,0.301267 1.5499986,1.5499986 0 0 1 -0.862481,-0.263033 c -2.64e-4,7.7e-5 -7.93e-4,-7.9e-5 -0.0011,0 a 1.5499986,1.5499986 0 0 1 -0.426845,-0.429432 1.5499986,1.5499986 0 0 1 -0.07803,-0.131257 1.5499986,1.5499986 0 0 1 -0.06408,-0.136427 1.5499986,1.5499986 0 0 1 -0.0031,-0.0067 1.5499986,1.5499986 0 0 1 -0.04186,-0.119372 1.5499986,1.5499986 0 0 1 -0.01085,-0.03152 1.5499986,1.5499986 0 0 1 -0.02997,-0.125058 1.5499986,1.5499986 0 0 1 -0.03204,-0.306956 1.5499986,1.5499986 0 0 1 0.0077,-0.154514 1.5499986,1.5499986 0 0 1 0,-5.3e-4 1.5499986,1.5499986 0 0 1 0.0031,-0.01963 1.5499986,1.5499986 0 0 1 0.05064,-0.252698 1.5499986,1.5499986 0 0 1 0.0078,-0.03049 1.5499986,1.5499986 0 0 1 0,-5.29e-4 1.5499986,1.5499986 0 0 1 0.01913,-0.05271 1.5499986,1.5499986 0 0 1 0.03411,-0.09302 1.5499986,1.5499986 0 0 1 0.06718,-0.139009 1.5499986,1.5499986 0 0 1 0,-5.3e-4 1.5499986,1.5499986 0 0 1 0.03049,-0.05013 1.5499986,1.5499986 0 0 1 0.103868,-0.151413 1.5499986,1.5499986 0 0 1 0.04031,-0.05323 1.5499986,1.5499986 0 0 1 0,-5.29e-4 1.5499986,1.5499986 0 0 1 0.07234,-0.07751 1.5499986,1.5499986 0 0 1 0.05478,-0.05478 1.5499986,1.5499986 0 0 1 0.05219,-0.04599 1.5499986,1.5499986 0 0 1 0.06925,-0.05633 1.5499986,1.5499986 0 0 1 0.05013,-0.03566 1.5499986,1.5499986 0 0 1 0.07907,-0.05219 1.5499986,1.5499986 0 0 1 0.05013,-0.02894 1.5499986,1.5499986 0 0 1 0.08475,-0.04496 1.5499986,1.5499986 0 0 1 0.05168,-0.02273 1.5499986,1.5499986 0 0 1 0.09767,-0.03927 1.5499986,1.5499986 0 0 1 0.04082,-0.01394 1.5499986,1.5499986 0 0 1 0.102319,-0.02997 1.5499986,1.5499986 0 0 1 0.05374,-0.01241 1.5499986,1.5499986 0 0 1 0.09922,-0.0186 1.5499986,1.5499986 0 0 1 0.04909,-0.0057 1.5499986,1.5499986 0 0 1 0.123505,-0.01035 1.5499986,1.5499986 0 0 1 0.05478,-0.0021 z m 35.451581,0 a 1.5499986,1.5499986 0 0 1 0.134358,0.0067 1.5499986,1.5499986 0 0 1 0.120407,0.01603 1.5499986,1.5499986 0 0 1 0.02997,0.0047 1.5499986,1.5499986 0 0 1 0.145727,0.03514 1.5499986,1.5499986 0 0 1 0.146762,0.05064 1.5499986,1.5499986 0 0 1 0.40101,0.236159 1.5499986,1.5499986 0 0 1 0.500743,0.74259 1.5499986,1.5499986 0 0 1 0.03721,0.143145 1.5499986,1.5499986 0 0 1 0.0016,0.0067 1.5499986,1.5499986 0 0 1 5.29e-4,0.0031 1.5499986,1.5499986 0 0 1 0.01963,0.12764 1.5499986,1.5499986 0 0 1 0.0041,0.03411 1.5499986,1.5499986 0 0 1 0.0083,0.143661 1.5499986,1.5499986 0 0 1 -0.0031,0.05581 1.5499986,1.5499986 0 0 1 -0.0041,0.08217 1.5499986,1.5499986 0 0 1 -0.01291,0.09612 1.5499986,1.5499986 0 0 1 -0.0088,0.05788 1.5499986,1.5499986 0 0 1 -0.02326,0.0956 1.5499986,1.5499986 0 0 1 -0.01394,0.05478 1.5499986,1.5499986 0 0 1 -0.02791,0.08113 1.5499986,1.5499986 0 0 1 -0.02479,0.0677 1.5499986,1.5499986 0 0 1 -0.02894,0.06253 1.5499986,1.5499986 0 0 1 -0.03979,0.08165 1.5499986,1.5499986 0 0 1 -0.02687,0.04548 1.5499986,1.5499986 0 0 1 -0.05219,0.08475 1.5499986,1.5499986 0 0 1 -0.04031,0.05426 1.5499986,1.5499986 0 0 1 -0.04289,0.05839 1.5499986,1.5499986 0 0 1 -0.0098,0.01085 1.5499986,1.5499986 0 0 1 -0.04547,0.05013 1.5499986,1.5499986 0 0 1 -0.04548,0.05064 1.5499986,1.5499986 0 0 1 -0.0041,0.0041 1.5499986,1.5499986 0 0 1 -0.0078,0.0067 1.5499986,1.5499986 0 0 1 -0.05633,0.05168 1.5499986,1.5499986 0 0 1 -0.04961,0.04496 1.5499986,1.5499986 0 0 1 -0.01241,0.0093 1.5499986,1.5499986 0 0 1 -0.05478,0.04238 c -7.94e-4,-1.22e-4 -0.0013,-2.64e-4 -0.0021,-5.29e-4 a 1.5499986,1.5499986 0 0 1 -0.0553,0.04134 1.5499986,1.5499986 0 0 1 -0.131257,0.07803 1.5499986,1.5499986 0 0 1 -0.0021,0.0011 1.5499986,1.5499986 0 0 1 -0.134358,0.06305 1.5499986,1.5499986 0 0 1 -0.0067,0.0031 1.5499986,1.5499986 0 0 1 -0.119375,0.04186 1.5499986,1.5499986 0 0 1 -0.03152,0.01085 1.5499986,1.5499986 0 0 1 -0.125056,0.02997 1.5499986,1.5499986 0 0 1 -0.02326,0.0052 1.5499986,1.5499986 0 0 1 -0.128674,0.01757 1.5499986,1.5499986 0 0 1 -0.02585,0.0031 1.5499986,1.5499986 0 0 1 -0.129191,0.0062 1.5499986,1.5499986 0 0 1 -0.15503,-0.0077 1.5499986,1.5499986 0 0 1 -0.843875,-0.356568 1.5499986,1.5499986 0 0 1 -0.0894,-0.08423 1.5499986,1.5499986 0 0 1 -0.01085,-0.01085 1.5499986,1.5499986 0 0 1 -0.08578,-0.09405 1.5499986,1.5499986 0 0 1 -0.02635,-0.03204 1.5499986,1.5499986 0 0 1 -0.06511,-0.08785 1.5499986,1.5499986 0 0 1 -0.02687,-0.04134 1.5499986,1.5499986 0 0 1 -0.05116,-0.08527 1.5499986,1.5499986 0 0 1 -0.02894,-0.05478 1.5499986,1.5499986 0 0 1 -0.03669,-0.07906 1.5499986,1.5499986 0 0 1 -0.02842,-0.0708 1.5499986,1.5499986 0 0 1 -0.02479,-0.06925 1.5499986,1.5499986 0 0 1 -0.02273,-0.077 1.5499986,1.5499986 0 0 1 -0.01757,-0.07235 1.5499986,1.5499986 0 0 1 -0.01551,-0.08423 1.5499986,1.5499986 0 0 1 -0.0088,-0.06305 1.5499986,1.5499986 0 0 1 -0.0088,-0.105421 1.5499986,1.5499986 0 0 1 -0.0016,-0.01913 1.5499986,1.5499986 0 0 1 -0.0026,-0.05478 h 5.29e-4 a 1.5499986,1.5499986 0 0 1 5.29e-4,-0.0078 1.5499986,1.5499986 0 0 1 0.0052,-0.100253 1.5499986,1.5499986 0 0 1 0.0072,-0.07855 1.5499986,1.5499986 0 0 1 0.0093,-0.06149 1.5499986,1.5499986 0 0 1 0.01963,-0.10232 1.5499986,1.5499986 0 0 1 0.01138,-0.04238 1.5499986,1.5499986 0 0 1 0.02997,-0.10232 1.5499986,1.5499986 0 0 1 0.01654,-0.04496 1.5499986,1.5499986 0 0 1 0.04237,-0.104386 1.5499986,1.5499986 0 0 1 0.01654,-0.03411 1.5499986,1.5499986 0 0 1 0.05736,-0.106452 1.5499986,1.5499986 0 0 1 0.01241,-0.02119 1.5499986,1.5499986 0 0 1 0.07441,-0.111104 1.5499986,1.5499986 0 0 1 0.01241,-0.01601 1.5499986,1.5499986 0 0 1 0.08268,-0.100769 1.5499986,1.5499986 0 0 1 0.0181,-0.01963 1.5499986,1.5499986 0 0 1 0.09715,-0.09612 1.5499986,1.5499986 0 0 1 0.0052,-0.0047 1.5499986,1.5499986 0 0 1 0.115755,-0.09405 1.5499986,1.5499986 0 0 1 0.0016,-0.0011 1.5499986,1.5499986 0 0 1 0.04134,-0.02946 1.5499986,1.5499986 0 0 1 0.123507,-0.07597 1.5499986,1.5499986 0 0 1 0.01035,-0.0057 1.5499986,1.5499986 0 0 1 0.117305,-0.05736 1.5499986,1.5499986 0 0 1 0.02687,-0.01188 1.5499986,1.5499986 0 0 1 0.11524,-0.04186 1.5499986,1.5499986 0 0 1 0.03255,-0.01085 1.5499986,1.5499986 0 0 1 0.102838,-0.02687 1.5499986,1.5499986 0 0 1 0.05323,-0.01188 1.5499986,1.5499986 0 0 1 0.0956,-0.01447 1.5499986,1.5499986 0 0 1 0.05994,-0.0072 1.5499986,1.5499986 0 0 1 0.135909,-0.0072 z M 80.78163,34.893984 a 0.7678066,0.7678066 0 0 1 0.767913,0.767914 0.7678066,0.7678066 0 0 1 -0.767913,0.767911 0.7678066,0.7678066 0 0 1 -0.767911,-0.767911 0.7678066,0.7678066 0 0 1 0.767911,-0.767914 z m -30.31236,0.253215 h 1.502751 a 0.50005001,0.50005001 0 0 1 0.353465,0.146761 l 2.598293,2.598809 a 0.50005001,0.50005001 0 0 1 0.146759,0.353465 v 1.502236 a 0.50005001,0.50005001 0 0 1 -0.146759,0.353983 l -2.598293,2.598292 a 0.50005001,0.50005001 0 0 1 -0.353465,0.14676 H 50.46927 a 0.50005001,0.50005001 0 0 1 -0.353468,-0.14676 L 47.516993,40.102453 A 0.50005001,0.50005001 0 0 1 47.37075,39.74847 v -1.502236 a 0.50005001,0.50005001 0 0 1 0.146243,-0.353465 l 2.598809,-2.598809 a 0.50005001,0.50005001 0 0 1 0.353468,-0.146761 z m 31.89986,0.805119 a 0.7678066,0.7678066 0 0 1 0.767913,0.767913 0.7678066,0.7678066 0 0 1 -0.767913,0.767911 0.7678066,0.7678066 0 0 1 -0.767911,-0.767911 0.7678066,0.7678066 0 0 1 0.767911,-0.767913 z m -7.903909,0.536403 h 3.675227 a 0.50005001,0.50005001 0 0 1 0.353467,0.146759 l 1.062469,1.062469 a 0.50005001,0.50005001 0 0 1 0.146243,0.353467 v 3.675229 a 0.50005001,0.50005001 0 0 1 -0.146243,0.35347 l -1.062469,1.06246 a 0.50005001,0.50005001 0 0 1 -0.353467,0.14676 h -3.675227 a 0.50005001,0.50005001 0 0 1 -0.353983,-0.14676 l -1.062469,-1.06246 a 0.50005001,0.50005001 0 0 1 -0.146243,-0.35347 v -3.675229 a 0.50005001,0.50005001 0 0 1 0.146243,-0.353467 l 1.062469,-1.062469 a 0.50005001,0.50005001 0 0 1 0.353983,-0.146759 z m 6.316409,0.52193 a 0.7678066,0.7678066 0 0 1 0.767913,0.767914 0.7678066,0.7678066 0 0 1 -0.767913,0.76791 0.7678066,0.7678066 0 0 1 -0.767911,-0.76791 0.7678066,0.7678066 0 0 1 0.767911,-0.767914 z m 1.5875,1.058333 a 0.7678066,0.7678066 0 0 1 0.767913,0.767914 0.7678066,0.7678066 0 0 1 -0.767913,0.767911 0.7678066,0.7678066 0 0 1 -0.767911,-0.767911 0.7678066,0.7678066 0 0 1 0.767911,-0.767914 z m -1.5875,1.058334 a 0.7678066,0.7678066 0 0 1 0.767913,0.767913 0.7678066,0.7678066 0 0 1 -0.767913,0.767911 0.7678066,0.7678066 0 0 1 -0.767911,-0.767911 0.7678066,0.7678066 0 0 1 0.767911,-0.767913 z m 1.5875,1.058333 a 0.7678066,0.7678066 0 0 1 0.767913,0.767914 0.7678066,0.7678066 0 0 1 -0.767913,0.76791 0.7678066,0.7678066 0 0 1 -0.767911,-0.76791 0.7678066,0.7678066 0 0 1 0.767911,-0.767914 z m -26.235091,0.652158 h 1.501719 a 0.50005001,0.50005001 0 0 1 0.353465,0.146759 l 2.599325,2.598297 a 0.50005001,0.50005001 0 0 1 0.146761,0.35398 v 1.502232 a 0.50005001,0.50005001 0 0 1 -0.146761,0.35347 l -2.599325,2.59881 a 0.50005001,0.50005001 0 0 1 -0.353465,0.14676 h -1.501719 a 0.50005001,0.50005001 0 0 1 -0.353465,-0.14676 l -2.599325,-2.59881 a 0.50005001,0.50005001 0 0 1 -0.146762,-0.35347 v -1.502232 a 0.50005001,0.50005001 0 0 1 0.146762,-0.35398 l 2.599325,-2.598297 a 0.50005001,0.50005001 0 0 1 0.353465,-0.146759 z m 18.331182,4.514458 h 3.675227 a 0.50005001,0.50005001 0 0 1 0.353467,0.14676 l 1.062469,1.06247 a 0.50005001,0.50005001 0 0 1 0.146243,0.35346 v 3.67523 a 0.50005001,0.50005001 0 0 1 -0.146243,0.35347 l -1.062469,1.06246 a 0.50005001,0.50005001 0 0 1 -0.353467,0.14677 h -3.675227 a 0.50005001,0.50005001 0 0 1 -0.353983,-0.14677 l -1.062469,-1.06246 a 0.50005001,0.50005001 0 0 1 -0.146243,-0.35347 v -3.67523 a 0.50005001,0.50005001 0 0 1 0.146243,-0.35346 l 1.062469,-1.06247 a 0.50005001,0.50005001 0 0 1 0.353983,-0.14676 z m -23.995951,1.20819 h 1.502751 a 0.50005001,0.50005001 0 0 1 0.353465,0.14676 l 2.598293,2.59933 a 0.50005001,0.50005001 0 0 1 0.146759,0.35347 v 1.50171 a 0.50005001,0.50005001 0 0 1 -0.146759,0.35347 l -2.598293,2.59932 a 0.50005001,0.50005001 0 0 1 -0.353465,0.14676 H 50.46927 a 0.50005001,0.50005001 0 0 1 -0.353468,-0.14676 l -2.598809,-2.59932 a 0.50005001,0.50005001 0 0 1 -0.146243,-0.35347 v -1.50171 a 0.50005001,0.50005001 0 0 1 0.146243,-0.35347 l 2.598809,-2.59933 a 0.50005001,0.50005001 0 0 1 0.353468,-0.14676 z m -5.31182,3.24012 a 1.5499986,1.5499986 0 0 1 1.549776,1.55029 1.5499986,1.5499986 0 0 1 -1.549776,1.54977 1.5499986,1.5499986 0 0 1 -1.549779,-1.54977 1.5499986,1.5499986 0 0 1 1.549779,-1.55029 z"
       style="opacity:1;fill:none;fill-opacity:1;stroke:#0000ff;stroke-width:0.001;stroke-linecap:round;stroke-linejoin:round;stroke-miterlimit:4;stroke-dasharray:none;stroke-dashoffset:0;stroke-opacity:1;paint-order:markers stroke fill" />
  </g>
</svg>
