  0
SECTION
  2
HEADER
  9
$ACADVER
  1
AC1014
  9
$HANDSEED
  5
FFFF
  9
$MEASUREMENT
 70
     1
  0
ENDSEC
  0
SECTION
  2
TABLES
  0
TABLE
  2
VPORT
  5
8
330
0
100
AcDbSymbolTable
 70
     4
  0
VPORT
  5
2E
330
8
100
AcDbSymbolTableRecord
100
AcDbViewportTableRecord
  2
*ACTIVE
 70
     0
 10
0.0
 20
0.0
 11
1.0
 21
1.0
 12
210.0
 22
148.5
 13
0.0
 23
0.0
 14
10.0
 24
10.0
 15
10.0
 25
10.0
 16
0.0
 26
0.0
 36
1.0
 17
0.0
 27
0.0
 37
0.0
 40
341.0
 41
1.24
 42
50.0
 43
0.0
 44
0.0
 50
0.0
 51
0.0
 71
     0
 72
   100
 73
     1
 74
     3
 75
     0
 76
     0
 77
     0
 78
     0
  0
ENDTAB
  0
TABLE
  2
LTYPE
  5
5
330
0
100
AcDbSymbolTable
 70
     1
  0
LTYPE
  5
14
330
5
100
AcDbSymbolTableRecord
100
AcDbLinetypeTableRecord
  2
BYBLOCK
 70
     0
  3

 72
    65
 73
     0
 40
0.0
  0
LTYPE
  5
15
330
5
100
AcDbSymbolTableRecord
100
AcDbLinetypeTableRecord
  2
BYLAYER
 70
     0
  3

 72
    65
 73
     0
 40
0.0
  0
LTYPE
  5
16
330
5
100
AcDbSymbolTableRecord
100
AcDbLinetypeTableRecord
  2
CONTINUOUS
 70
     0
  3
Solid line
 72
    65
 73
     0
 40
0.0
  0
ENDTAB
  0
TABLE
  2
LAYER
  5
2
100
AcDbSymbolTable
 70
1
  0
LAYER
  5
50
100
AcDbSymbolTableRecord
100
AcDbLayerTableRecord
  2
0
 70
0
  6
CONTINUOUS
  0
ENDTAB
  0
TABLE
  2
STYLE
  5
3
330
0
100
AcDbSymbolTable
 70
     1
  0
STYLE
  5
11
330
3
100
AcDbSymbolTableRecord
100
AcDbTextStyleTableRecord
  2
STANDARD
 70
     0
 40
0.0
 41
1.0
 50
0.0
 71
     0
 42
2.5
  3
txt
  4

  0
ENDTAB
  0
TABLE
  2
VIEW
  5
6
330
0
100
AcDbSymbolTable
 70
     0
  0
ENDTAB
  0
TABLE
  2
UCS
  5
7
330
0
100
AcDbSymbolTable
 70
     0
  0
ENDTAB
  0
TABLE
  2
APPID
  5
9
330
0
100
AcDbSymbolTable
 70
     2
  0
APPID
  5
12
330
9
100
AcDbSymbolTableRecord
100
AcDbRegAppTableRecord
  2
ACAD
 70
     0
  0
ENDTAB
  0
TABLE
  2
DIMSTYLE
  5
A
330
0
100
AcDbSymbolTable
 70
     1
  0
DIMSTYLE
105
27
330
A
100
AcDbSymbolTableRecord
100
AcDbDimStyleTableRecord
  2
ISO-25
 70
     0
  3

  4

  5

  6

  7

 40
1.0
 41
2.5
 42
0.625
 43
3.75
 44
1.25
 45
0.0
 46
0.0
 47
0.0
 48
0.0
140
2.5
141
2.5
142
0.0
143
0.03937007874016
144
1.0
145
0.0
146
1.0
147
0.625
 71
     0
 72
     0
 73
     0
 74
     0
 75
     0
 76
     0
 77
     1
 78
     8
170
     0
171
     3
172
     1
173
     0
174
     0
175
     0
176
     0
177
     0
178
     0
270
     2
271
     2
272
     2
273
     2
274
     3
340
11
275
     0
280
     0
281
     0
282
     0
283
     0
284
     8
285
     0
286
     0
287
     3
288
     0
  0
ENDTAB
  0
TABLE
  2
BLOCK_RECORD
  5
1
330
0
100
AcDbSymbolTable
 70
     1
  0
BLOCK_RECORD
  5
1F
330
1
100
AcDbSymbolTableRecord
100
AcDbBlockTableRecord
  2
*MODEL_SPACE
  0
BLOCK_RECORD
  5
1B
330
1
100
AcDbSymbolTableRecord
100
AcDbBlockTableRecord
  2
*PAPER_SPACE
  0
ENDTAB
  0
ENDSEC
  0
SECTION
  2
BLOCKS
  0
BLOCK
  5
20
330
1F
100
AcDbEntity
  8
0
100
AcDbBlockBegin
  2
*MODEL_SPACE
 70
     0
 10
0.0
 20
0.0
 30
0.0
  3
*MODEL_SPACE
  1

  0
ENDBLK
  5
21
330
1F
100
AcDbEntity
  8
0
100
AcDbBlockEnd
  0
BLOCK
  5
1C
330
1B
100
AcDbEntity
 67
     1
  8
0
100
AcDbBlockBegin
  2
*PAPER_SPACE
  1

  0
ENDBLK
  5
1D
330
1B
100
AcDbEntity
 67
     1
  8
0
100
AcDbBlockEnd
  0
ENDSEC
  0
SECTION
  2
ENTITIES
  0
LINE
  5
100
100
AcDbEntity
  8
0
 62
7
100
AcDbLine
 10
2.227260
 20
50.572671
 30
0.0
 11
0.227377
 21
48.572786
 31
0.0
  0
LINE
  5
101
100
AcDbEntity
  8
0
 62
7
100
AcDbLine
 10
0.227377
 20
2.572884
 30
0.0
 11
2.227260
 21
0.573004
 31
0.0
  0
LINE
  5
102
100
AcDbEntity
  8
0
 62
7
100
AcDbLine
 10
0.227377
 20
48.572787
 30
0.0
 11
0.227377
 21
2.572884
 31
0.0
  0
LINE
  5
103
100
AcDbEntity
  8
0
 62
7
100
AcDbLine
 10
40.227110
 20
0.573004
 30
0.0
 11
42.226995
 21
2.572884
 31
0.0
  0
LINE
  5
104
100
AcDbEntity
  8
0
 62
7
100
AcDbLine
 10
2.227260
 20
0.573002
 30
0.0
 11
8.324579
 21
0.573002
 31
0.0
  0
LINE
  5
105
100
AcDbEntity
  8
0
 62
7
100
AcDbLine
 10
8.324579
 20
0.573002
 30
0.0
 11
8.324579
 21
2.836952
 31
0.0
  0
LINE
  5
106
100
AcDbEntity
  8
0
 62
7
100
AcDbLine
 10
8.324579
 20
2.836952
 30
0.0
 11
9.924486
 21
2.836952
 31
0.0
  0
LINE
  5
107
100
AcDbEntity
  8
0
 62
7
100
AcDbLine
 10
9.924486
 20
2.836952
 30
0.0
 11
9.924486
 21
0.573002
 31
0.0
  0
LINE
  5
108
100
AcDbEntity
  8
0
 62
7
100
AcDbLine
 10
9.924486
 20
0.573002
 30
0.0
 11
40.227111
 21
0.573002
 31
0.0
  0
LINE
  5
109
100
AcDbEntity
  8
0
 62
7
100
AcDbLine
 10
42.226995
 20
48.572786
 30
0.0
 11
40.227110
 21
50.572671
 31
0.0
  0
LINE
  5
10a
100
AcDbEntity
  8
0
 62
7
100
AcDbLine
 10
42.226996
 20
2.572884
 30
0.0
 11
42.226996
 21
48.572787
 31
0.0
  0
LINE
  5
10b
100
AcDbEntity
  8
0
 62
7
100
AcDbLine
 10
40.227111
 20
50.572670
 30
0.0
 11
2.227260
 21
50.572670
 31
0.0
  0
LINE
  5
10c
100
AcDbEntity
  8
0
 62
7
100
AcDbLine
 10
2.227260
 20
50.572670
 30
0.0
 11
2.227260
 21
50.572670
 31
0.0
  0
LINE
  5
10d
100
AcDbEntity
  8
0
 62
7
100
AcDbLine
 10
40.982622
 20
49.637324
 30
0.0
 11
41.983081
 21
48.637382
 31
0.0
  0
LINE
  5
10e
100
AcDbEntity
  8
0
 62
7
100
AcDbLine
 10
5.782609
 20
49.637324
 30
0.0
 11
40.982623
 21
49.637324
 31
0.0
  0
LINE
  5
10f
100
AcDbEntity
  8
0
 62
7
100
AcDbLine
 10
41.983081
 20
21.137188
 30
0.0
 11
40.982622
 21
20.137248
 31
0.0
  0
LINE
  5
110
100
AcDbEntity
  8
0
 62
7
100
AcDbLine
 10
41.983081
 20
48.637382
 30
0.0
 11
41.983081
 21
21.137178
 31
0.0
  0
LINE
  5
111
100
AcDbEntity
  8
0
 62
7
100
AcDbLine
 10
5.782609
 20
20.137248
 30
0.0
 11
4.782667
 21
21.137188
 31
0.0
  0
LINE
  5
112
100
AcDbEntity
  8
0
 62
7
100
AcDbLine
 10
40.982623
 20
20.137236
 30
0.0
 11
9.924486
 21
20.137236
 31
0.0
  0
LINE
  5
113
100
AcDbEntity
  8
0
 62
7
100
AcDbLine
 10
9.924486
 20
20.137236
 30
0.0
 11
9.924486
 21
18.266544
 31
0.0
  0
LINE
  5
114
100
AcDbEntity
  8
0
 62
7
100
AcDbLine
 10
9.924486
 20
18.266544
 30
0.0
 11
8.324579
 21
18.266544
 31
0.0
  0
LINE
  5
115
100
AcDbEntity
  8
0
 62
7
100
AcDbLine
 10
8.324579
 20
18.266544
 30
0.0
 11
8.324579
 21
20.137236
 31
0.0
  0
LINE
  5
116
100
AcDbEntity
  8
0
 62
7
100
AcDbLine
 10
8.324579
 20
20.137236
 30
0.0
 11
5.782609
 21
20.137236
 31
0.0
  0
SPLINE
  5
117
100
AcDbEntity
  8
0
 62
7
100
AcDbSpline
 70
8
 71
3
 72
8
 73
4
 74
0
 40
0
 40
0
 40
0
 40
0
 40
1
 40
1
 40
1
 40
1
 10
4.782667
 20
48.637382
 30
0.0
 10
4.782667
 20
49.191383
 30
0.0
 10
5.228608
 20
49.637324
 30
0.0
 10
5.782609
 20
49.637324
 30
0.0
  0
LINE
  5
118
100
AcDbEntity
  8
0
 62
7
100
AcDbLine
 10
4.782667
 20
21.137178
 30
0.0
 11
4.782667
 21
48.637382
 31
0.0
  0
LINE
  5
119
100
AcDbEntity
  8
0
 62
7
100
AcDbLine
 10
0.334864
 20
47.836912
 30
0.0
 11
0.934829
 21
47.836912
 31
0.0
  0
LINE
  5
11a
100
AcDbEntity
  8
0
 62
7
100
AcDbLine
 10
0.934829
 20
47.836912
 30
0.0
 11
0.934829
 21
46.836454
 31
0.0
  0
LINE
  5
11b
100
AcDbEntity
  8
0
 62
7
100
AcDbLine
 10
0.934829
 20
46.836454
 30
0.0
 11
0.334864
 21
46.836454
 31
0.0
  0
LINE
  5
11c
100
AcDbEntity
  8
0
 62
7
100
AcDbLine
 10
0.334864
 20
46.836454
 30
0.0
 11
0.334864
 21
47.836912
 31
0.0
  0
LINE
  5
11d
100
AcDbEntity
  8
0
 62
7
100
AcDbLine
 10
0.334864
 20
47.836912
 30
0.0
 11
0.334864
 21
47.836912
 31
0.0
  0
LINE
  5
11e
100
AcDbEntity
  8
0
 62
7
100
AcDbLine
 10
0.334864
 20
47.836912
 30
0.0
 11
0.334864
 21
47.836912
 31
0.0
  0
LINE
  5
11f
100
AcDbEntity
  8
0
 62
7
100
AcDbLine
 10
2.334748
 20
47.836912
 30
0.0
 11
3.134701
 21
47.836912
 31
0.0
  0
LINE
  5
120
100
AcDbEntity
  8
0
 62
7
100
AcDbLine
 10
3.134701
 20
47.836912
 30
0.0
 11
3.134701
 21
46.836454
 31
0.0
  0
LINE
  5
121
100
AcDbEntity
  8
0
 62
7
100
AcDbLine
 10
3.134701
 20
46.836454
 30
0.0
 11
2.334748
 21
46.836454
 31
0.0
  0
LINE
  5
122
100
AcDbEntity
  8
0
 62
7
100
AcDbLine
 10
2.334748
 20
46.836454
 30
0.0
 11
2.334748
 21
47.836912
 31
0.0
  0
LINE
  5
123
100
AcDbEntity
  8
0
 62
7
100
AcDbLine
 10
2.334748
 20
47.836912
 30
0.0
 11
2.334748
 21
47.836912
 31
0.0
  0
LINE
  5
124
100
AcDbEntity
  8
0
 62
7
100
AcDbLine
 10
2.334748
 20
47.836912
 30
0.0
 11
2.334748
 21
47.836912
 31
0.0
  0
LINE
  5
125
100
AcDbEntity
  8
0
 62
7
100
AcDbLine
 10
2.634472
 20
46.286615
 30
0.0
 11
4.134643
 21
46.286615
 31
0.0
  0
LINE
  5
126
100
AcDbEntity
  8
0
 62
7
100
AcDbLine
 10
4.134643
 20
46.286615
 30
0.0
 11
4.134643
 21
45.586914
 31
0.0
  0
LINE
  5
127
100
AcDbEntity
  8
0
 62
7
100
AcDbLine
 10
4.134643
 20
45.586914
 30
0.0
 11
2.634472
 21
45.586914
 31
0.0
  0
LINE
  5
128
100
AcDbEntity
  8
0
 62
7
100
AcDbLine
 10
2.634472
 20
45.586914
 30
0.0
 11
2.634472
 21
46.286615
 31
0.0
  0
LINE
  5
129
100
AcDbEntity
  8
0
 62
7
100
AcDbLine
 10
2.634472
 20
46.286615
 30
0.0
 11
2.634472
 21
46.286615
 31
0.0
  0
LINE
  5
12a
100
AcDbEntity
  8
0
 62
7
100
AcDbLine
 10
2.634472
 20
46.286615
 30
0.0
 11
2.634472
 21
46.286615
 31
0.0
  0
LINE
  5
12b
100
AcDbEntity
  8
0
 62
7
100
AcDbLine
 10
2.634472
 20
43.286790
 30
0.0
 11
4.134643
 21
43.286790
 31
0.0
  0
LINE
  5
12c
100
AcDbEntity
  8
0
 62
7
100
AcDbLine
 10
4.134643
 20
43.286790
 30
0.0
 11
4.134643
 21
42.586572
 31
0.0
  0
LINE
  5
12d
100
AcDbEntity
  8
0
 62
7
100
AcDbLine
 10
4.134643
 20
42.586572
 30
0.0
 11
2.634472
 21
42.586572
 31
0.0
  0
LINE
  5
12e
100
AcDbEntity
  8
0
 62
7
100
AcDbLine
 10
2.634472
 20
42.586572
 30
0.0
 11
2.634472
 21
43.286790
 31
0.0
  0
LINE
  5
12f
100
AcDbEntity
  8
0
 62
7
100
AcDbLine
 10
2.634472
 20
43.286790
 30
0.0
 11
2.634472
 21
43.286790
 31
0.0
  0
LINE
  5
130
100
AcDbEntity
  8
0
 62
7
100
AcDbLine
 10
2.634472
 20
43.286790
 30
0.0
 11
2.634472
 21
43.286790
 31
0.0
  0
LINE
  5
131
100
AcDbEntity
  8
0
 62
7
100
AcDbLine
 10
2.634472
 20
41.786619
 30
0.0
 11
4.134643
 21
41.786619
 31
0.0
  0
LINE
  5
132
100
AcDbEntity
  8
0
 62
7
100
AcDbLine
 10
4.134643
 20
41.786619
 30
0.0
 11
4.134643
 21
41.086918
 31
0.0
  0
LINE
  5
133
100
AcDbEntity
  8
0
 62
7
100
AcDbLine
 10
4.134643
 20
41.086918
 30
0.0
 11
2.634472
 21
41.086918
 31
0.0
  0
LINE
  5
134
100
AcDbEntity
  8
0
 62
7
100
AcDbLine
 10
2.634472
 20
41.086918
 30
0.0
 11
2.634472
 21
41.786619
 31
0.0
  0
LINE
  5
135
100
AcDbEntity
  8
0
 62
7
100
AcDbLine
 10
2.634472
 20
41.786619
 30
0.0
 11
2.634472
 21
41.786619
 31
0.0
  0
LINE
  5
136
100
AcDbEntity
  8
0
 62
7
100
AcDbLine
 10
2.634472
 20
41.786619
 30
0.0
 11
2.634472
 21
41.786619
 31
0.0
  0
LINE
  5
137
100
AcDbEntity
  8
0
 62
7
100
AcDbLine
 10
0.334864
 20
40.536563
 30
0.0
 11
0.934829
 21
40.536563
 31
0.0
  0
LINE
  5
138
100
AcDbEntity
  8
0
 62
7
100
AcDbLine
 10
0.934829
 20
40.536563
 30
0.0
 11
0.934829
 21
39.536621
 31
0.0
  0
LINE
  5
139
100
AcDbEntity
  8
0
 62
7
100
AcDbLine
 10
0.934829
 20
39.536621
 30
0.0
 11
0.334864
 21
39.536621
 31
0.0
  0
LINE
  5
13a
100
AcDbEntity
  8
0
 62
7
100
AcDbLine
 10
0.334864
 20
39.536621
 30
0.0
 11
0.334864
 21
40.536563
 31
0.0
  0
LINE
  5
13b
100
AcDbEntity
  8
0
 62
7
100
AcDbLine
 10
0.334864
 20
40.536563
 30
0.0
 11
0.334864
 21
40.536563
 31
0.0
  0
LINE
  5
13c
100
AcDbEntity
  8
0
 62
7
100
AcDbLine
 10
0.334864
 20
40.536563
 30
0.0
 11
0.334864
 21
40.536563
 31
0.0
  0
LINE
  5
13d
100
AcDbEntity
  8
0
 62
7
100
AcDbLine
 10
2.334748
 20
40.536563
 30
0.0
 11
3.134701
 21
40.536563
 31
0.0
  0
LINE
  5
13e
100
AcDbEntity
  8
0
 62
7
100
AcDbLine
 10
3.134701
 20
40.536563
 30
0.0
 11
3.134701
 21
39.536621
 31
0.0
  0
LINE
  5
13f
100
AcDbEntity
  8
0
 62
7
100
AcDbLine
 10
3.134701
 20
39.536621
 30
0.0
 11
2.334748
 21
39.536621
 31
0.0
  0
LINE
  5
140
100
AcDbEntity
  8
0
 62
7
100
AcDbLine
 10
2.334748
 20
39.536621
 30
0.0
 11
2.334748
 21
40.536563
 31
0.0
  0
LINE
  5
141
100
AcDbEntity
  8
0
 62
7
100
AcDbLine
 10
2.334748
 20
40.536563
 30
0.0
 11
2.334748
 21
40.536563
 31
0.0
  0
LINE
  5
142
100
AcDbEntity
  8
0
 62
7
100
AcDbLine
 10
2.334748
 20
40.536563
 30
0.0
 11
2.334748
 21
40.536563
 31
0.0
  0
LINE
  5
143
100
AcDbEntity
  8
0
 62
7
100
AcDbLine
 10
0.844912
 20
37.221511
 30
0.0
 11
3.384816
 21
37.221511
 31
0.0
  0
LINE
  5
144
100
AcDbEntity
  8
0
 62
7
100
AcDbLine
 10
3.384816
 20
37.221511
 30
0.0
 11
3.384816
 21
35.951817
 31
0.0
  0
LINE
  5
145
100
AcDbEntity
  8
0
 62
7
100
AcDbLine
 10
3.384816
 20
35.951817
 30
0.0
 11
0.844912
 21
35.951817
 31
0.0
  0
LINE
  5
146
100
AcDbEntity
  8
0
 62
7
100
AcDbLine
 10
0.844912
 20
35.951817
 30
0.0
 11
0.844912
 21
37.221511
 31
0.0
  0
LINE
  5
147
100
AcDbEntity
  8
0
 62
7
100
AcDbLine
 10
0.844912
 20
37.221511
 30
0.0
 11
0.844912
 21
37.221511
 31
0.0
  0
LINE
  5
148
100
AcDbEntity
  8
0
 62
7
100
AcDbLine
 10
0.844912
 20
37.221511
 30
0.0
 11
0.844912
 21
37.221511
 31
0.0
  0
LINE
  5
149
100
AcDbEntity
  8
0
 62
7
100
AcDbLine
 10
0.844912
 20
34.046502
 30
0.0
 11
3.384816
 21
34.046502
 31
0.0
  0
LINE
  5
14a
100
AcDbEntity
  8
0
 62
7
100
AcDbLine
 10
3.384816
 20
34.046502
 30
0.0
 11
3.384816
 21
32.776809
 31
0.0
  0
LINE
  5
14b
100
AcDbEntity
  8
0
 62
7
100
AcDbLine
 10
3.384816
 20
32.776809
 30
0.0
 11
0.844912
 21
32.776809
 31
0.0
  0
LINE
  5
14c
100
AcDbEntity
  8
0
 62
7
100
AcDbLine
 10
0.844912
 20
32.776809
 30
0.0
 11
0.844912
 21
34.046502
 31
0.0
  0
LINE
  5
14d
100
AcDbEntity
  8
0
 62
7
100
AcDbLine
 10
0.844912
 20
34.046502
 30
0.0
 11
0.844912
 21
34.046502
 31
0.0
  0
LINE
  5
14e
100
AcDbEntity
  8
0
 62
7
100
AcDbLine
 10
0.844912
 20
34.046502
 30
0.0
 11
0.844912
 21
34.046502
 31
0.0
  0
LINE
  5
14f
100
AcDbEntity
  8
0
 62
7
100
AcDbLine
 10
0.844912
 20
30.871493
 30
0.0
 11
3.384816
 21
30.871493
 31
0.0
  0
LINE
  5
150
100
AcDbEntity
  8
0
 62
7
100
AcDbLine
 10
3.384816
 20
30.871493
 30
0.0
 11
3.384816
 21
29.601800
 31
0.0
  0
LINE
  5
151
100
AcDbEntity
  8
0
 62
7
100
AcDbLine
 10
3.384816
 20
29.601800
 30
0.0
 11
0.844912
 21
29.601800
 31
0.0
  0
LINE
  5
152
100
AcDbEntity
  8
0
 62
7
100
AcDbLine
 10
0.844912
 20
29.601800
 30
0.0
 11
0.844912
 21
30.871493
 31
0.0
  0
LINE
  5
153
100
AcDbEntity
  8
0
 62
7
100
AcDbLine
 10
0.844912
 20
30.871493
 30
0.0
 11
0.844912
 21
30.871493
 31
0.0
  0
LINE
  5
154
100
AcDbEntity
  8
0
 62
7
100
AcDbLine
 10
0.844912
 20
30.871493
 30
0.0
 11
0.844912
 21
30.871493
 31
0.0
  0
LINE
  5
155
100
AcDbEntity
  8
0
 62
7
100
AcDbLine
 10
0.844912
 20
26.426791
 30
0.0
 11
3.384816
 21
26.426791
 31
0.0
  0
LINE
  5
156
100
AcDbEntity
  8
0
 62
7
100
AcDbLine
 10
3.384816
 20
26.426791
 30
0.0
 11
3.384816
 21
25.156581
 31
0.0
  0
LINE
  5
157
100
AcDbEntity
  8
0
 62
7
100
AcDbLine
 10
3.384816
 20
25.156581
 30
0.0
 11
0.844912
 21
25.156581
 31
0.0
  0
LINE
  5
158
100
AcDbEntity
  8
0
 62
7
100
AcDbLine
 10
0.844912
 20
25.156581
 30
0.0
 11
0.844912
 21
26.426791
 31
0.0
  0
LINE
  5
159
100
AcDbEntity
  8
0
 62
7
100
AcDbLine
 10
0.844912
 20
26.426791
 30
0.0
 11
0.844912
 21
26.426791
 31
0.0
  0
LINE
  5
15a
100
AcDbEntity
  8
0
 62
7
100
AcDbLine
 10
0.844912
 20
26.426791
 30
0.0
 11
0.844912
 21
26.426791
 31
0.0
  0
LINE
  5
15b
100
AcDbEntity
  8
0
 62
7
100
AcDbLine
 10
33.699843
 20
19.321264
 30
0.0
 11
35.299751
 21
19.321264
 31
0.0
  0
LINE
  5
15c
100
AcDbEntity
  8
0
 62
7
100
AcDbLine
 10
35.299751
 20
19.321264
 30
0.0
 11
35.299751
 21
17.021655
 31
0.0
  0
LINE
  5
15d
100
AcDbEntity
  8
0
 62
7
100
AcDbLine
 10
35.299751
 20
17.021655
 30
0.0
 11
33.699843
 21
17.021655
 31
0.0
  0
LINE
  5
15e
100
AcDbEntity
  8
0
 62
7
100
AcDbLine
 10
33.699843
 20
17.021655
 30
0.0
 11
33.699843
 21
19.321264
 31
0.0
  0
LINE
  5
15f
100
AcDbEntity
  8
0
 62
7
100
AcDbLine
 10
33.699843
 20
19.321264
 30
0.0
 11
33.699843
 21
19.321264
 31
0.0
  0
LINE
  5
160
100
AcDbEntity
  8
0
 62
7
100
AcDbLine
 10
33.699843
 20
19.321264
 30
0.0
 11
33.699843
 21
19.321264
 31
0.0
  0
LINE
  5
161
100
AcDbEntity
  8
0
 62
7
100
AcDbLine
 10
14.014687
 20
14.876561
 30
0.0
 11
15.614593
 21
14.876561
 31
0.0
  0
LINE
  5
162
100
AcDbEntity
  8
0
 62
7
100
AcDbLine
 10
15.614593
 20
14.876561
 30
0.0
 11
15.614593
 21
12.576437
 31
0.0
  0
LINE
  5
163
100
AcDbEntity
  8
0
 62
7
100
AcDbLine
 10
15.614593
 20
12.576437
 30
0.0
 11
14.014687
 21
12.576437
 31
0.0
  0
LINE
  5
164
100
AcDbEntity
  8
0
 62
7
100
AcDbLine
 10
14.014687
 20
12.576437
 30
0.0
 11
14.014687
 21
14.876561
 31
0.0
  0
LINE
  5
165
100
AcDbEntity
  8
0
 62
7
100
AcDbLine
 10
14.014687
 20
14.876561
 30
0.0
 11
14.014687
 21
14.876561
 31
0.0
  0
LINE
  5
166
100
AcDbEntity
  8
0
 62
7
100
AcDbLine
 10
14.014687
 20
14.876561
 30
0.0
 11
14.014687
 21
14.876561
 31
0.0
  0
LINE
  5
167
100
AcDbEntity
  8
0
 62
7
100
AcDbLine
 10
2.584862
 20
14.826952
 30
0.0
 11
4.184769
 21
14.826952
 31
0.0
  0
LINE
  5
168
100
AcDbEntity
  8
0
 62
7
100
AcDbLine
 10
4.184769
 20
14.826952
 30
0.0
 11
4.184769
 21
12.526827
 31
0.0
  0
LINE
  5
169
100
AcDbEntity
  8
0
 62
7
100
AcDbLine
 10
4.184769
 20
12.526827
 30
0.0
 11
2.584862
 21
12.526827
 31
0.0
  0
LINE
  5
16a
100
AcDbEntity
  8
0
 62
7
100
AcDbLine
 10
2.584862
 20
12.526827
 30
0.0
 11
2.584862
 21
14.826952
 31
0.0
  0
LINE
  5
16b
100
AcDbEntity
  8
0
 62
7
100
AcDbLine
 10
2.584862
 20
14.826952
 30
0.0
 11
2.584862
 21
14.826952
 31
0.0
  0
LINE
  5
16c
100
AcDbEntity
  8
0
 62
7
100
AcDbLine
 10
2.584862
 20
14.826952
 30
0.0
 11
2.584862
 21
14.826952
 31
0.0
  0
LINE
  5
16d
100
AcDbEntity
  8
0
 62
7
100
AcDbLine
 10
8.324579
 20
14.266777
 30
0.0
 11
9.924486
 21
14.266777
 31
0.0
  0
LINE
  5
16e
100
AcDbEntity
  8
0
 62
7
100
AcDbLine
 10
9.924486
 20
14.266777
 30
0.0
 11
9.924486
 21
11.966653
 31
0.0
  0
LINE
  5
16f
100
AcDbEntity
  8
0
 62
7
100
AcDbLine
 10
9.924486
 20
11.966653
 30
0.0
 11
8.324579
 21
11.966653
 31
0.0
  0
LINE
  5
170
100
AcDbEntity
  8
0
 62
7
100
AcDbLine
 10
8.324579
 20
11.966653
 30
0.0
 11
8.324579
 21
14.266777
 31
0.0
  0
LINE
  5
171
100
AcDbEntity
  8
0
 62
7
100
AcDbLine
 10
8.324579
 20
14.266777
 30
0.0
 11
8.324579
 21
14.266777
 31
0.0
  0
LINE
  5
172
100
AcDbEntity
  8
0
 62
7
100
AcDbLine
 10
8.324579
 20
14.266777
 30
0.0
 11
8.324579
 21
14.266777
 31
0.0
  0
LINE
  5
173
100
AcDbEntity
  8
0
 62
7
100
AcDbLine
 10
33.699843
 20
13.021372
 30
0.0
 11
35.299751
 21
13.021372
 31
0.0
  0
LINE
  5
174
100
AcDbEntity
  8
0
 62
7
100
AcDbLine
 10
35.299751
 20
13.021372
 30
0.0
 11
35.299751
 21
10.721247
 31
0.0
  0
LINE
  5
175
100
AcDbEntity
  8
0
 62
7
100
AcDbLine
 10
35.299751
 20
10.721247
 30
0.0
 11
33.699843
 21
10.721247
 31
0.0
  0
LINE
  5
176
100
AcDbEntity
  8
0
 62
7
100
AcDbLine
 10
33.699843
 20
10.721247
 30
0.0
 11
33.699843
 21
13.021372
 31
0.0
  0
LINE
  5
177
100
AcDbEntity
  8
0
 62
7
100
AcDbLine
 10
33.699843
 20
13.021372
 30
0.0
 11
33.699843
 21
13.021372
 31
0.0
  0
LINE
  5
178
100
AcDbEntity
  8
0
 62
7
100
AcDbLine
 10
33.699843
 20
13.021372
 30
0.0
 11
33.699843
 21
13.021372
 31
0.0
  0
LINE
  5
179
100
AcDbEntity
  8
0
 62
7
100
AcDbLine
 10
33.699843
 20
10.431343
 30
0.0
 11
35.299751
 21
10.431343
 31
0.0
  0
LINE
  5
17a
100
AcDbEntity
  8
0
 62
7
100
AcDbLine
 10
35.299751
 20
10.431343
 30
0.0
 11
35.299751
 21
8.131734
 31
0.0
  0
LINE
  5
17b
100
AcDbEntity
  8
0
 62
7
100
AcDbLine
 10
35.299751
 20
8.131734
 30
0.0
 11
33.699843
 21
8.131734
 31
0.0
  0
LINE
  5
17c
100
AcDbEntity
  8
0
 62
7
100
AcDbLine
 10
33.699843
 20
8.131734
 30
0.0
 11
33.699843
 21
10.431343
 31
0.0
  0
LINE
  5
17d
100
AcDbEntity
  8
0
 62
7
100
AcDbLine
 10
33.699843
 20
10.431343
 30
0.0
 11
33.699843
 21
10.431343
 31
0.0
  0
LINE
  5
17e
100
AcDbEntity
  8
0
 62
7
100
AcDbLine
 10
33.699843
 20
10.431343
 30
0.0
 11
33.699843
 21
10.431343
 31
0.0
  0
LINE
  5
17f
100
AcDbEntity
  8
0
 62
7
100
AcDbLine
 10
8.324579
 20
9.136844
 30
0.0
 11
9.924486
 21
9.136844
 31
0.0
  0
LINE
  5
180
100
AcDbEntity
  8
0
 62
7
100
AcDbLine
 10
9.924486
 20
9.136844
 30
0.0
 11
9.924486
 21
6.836720
 31
0.0
  0
LINE
  5
181
100
AcDbEntity
  8
0
 62
7
100
AcDbLine
 10
9.924486
 20
6.836720
 30
0.0
 11
8.324579
 21
6.836720
 31
0.0
  0
LINE
  5
182
100
AcDbEntity
  8
0
 62
7
100
AcDbLine
 10
8.324579
 20
6.836720
 30
0.0
 11
8.324579
 21
9.136844
 31
0.0
  0
LINE
  5
183
100
AcDbEntity
  8
0
 62
7
100
AcDbLine
 10
8.324579
 20
9.136844
 30
0.0
 11
8.324579
 21
9.136844
 31
0.0
  0
LINE
  5
184
100
AcDbEntity
  8
0
 62
7
100
AcDbLine
 10
8.324579
 20
9.136844
 30
0.0
 11
8.324579
 21
9.136844
 31
0.0
  0
LINE
  5
185
100
AcDbEntity
  8
0
 62
7
100
AcDbLine
 10
14.014687
 20
8.576669
 30
0.0
 11
15.614593
 21
8.576669
 31
0.0
  0
LINE
  5
186
100
AcDbEntity
  8
0
 62
7
100
AcDbLine
 10
15.614593
 20
8.576669
 30
0.0
 11
15.614593
 21
6.276545
 31
0.0
  0
LINE
  5
187
100
AcDbEntity
  8
0
 62
7
100
AcDbLine
 10
15.614593
 20
6.276545
 30
0.0
 11
14.014687
 21
6.276545
 31
0.0
  0
LINE
  5
188
100
AcDbEntity
  8
0
 62
7
100
AcDbLine
 10
14.014687
 20
6.276545
 30
0.0
 11
14.014687
 21
8.576669
 31
0.0
  0
LINE
  5
189
100
AcDbEntity
  8
0
 62
7
100
AcDbLine
 10
14.014687
 20
8.576669
 30
0.0
 11
14.014687
 21
8.576669
 31
0.0
  0
LINE
  5
18a
100
AcDbEntity
  8
0
 62
7
100
AcDbLine
 10
14.014687
 20
8.576669
 30
0.0
 11
14.014687
 21
8.576669
 31
0.0
  0
LINE
  5
18b
100
AcDbEntity
  8
0
 62
7
100
AcDbLine
 10
3.384816
 20
5.116932
 30
0.0
 11
4.480795
 21
4.662748
 31
0.0
  0
LINE
  5
18c
100
AcDbEntity
  8
0
 62
7
100
AcDbLine
 10
4.480795
 20
4.662748
 30
0.0
 11
4.934596
 21
3.566632
 31
0.0
  0
LINE
  5
18d
100
AcDbEntity
  8
0
 62
7
100
AcDbLine
 10
4.934596
 20
3.566632
 30
0.0
 11
3.384816
 21
2.016835
 31
0.0
  0
LINE
  5
18e
100
AcDbEntity
  8
0
 62
7
100
AcDbLine
 10
3.384816
 20
2.016835
 30
0.0
 11
2.288686
 21
2.470649
 31
0.0
  0
LINE
  5
18f
100
AcDbEntity
  8
0
 62
7
100
AcDbLine
 10
2.288686
 20
2.470649
 30
0.0
 11
1.834518
 21
3.566632
 31
0.0
  0
LINE
  5
190
100
AcDbEntity
  8
0
 62
7
100
AcDbLine
 10
1.834518
 20
3.566632
 30
0.0
 11
2.288502
 21
4.662933
 31
0.0
  0
LINE
  5
191
100
AcDbEntity
  8
0
 62
7
100
AcDbLine
 10
2.288502
 20
4.662933
 30
0.0
 11
3.384816
 21
5.116932
 31
0.0
  0
LINE
  5
192
100
AcDbEntity
  8
0
 62
7
100
AcDbLine
 10
2.584862
 20
8.526544
 30
0.0
 11
4.184769
 21
8.526544
 31
0.0
  0
LINE
  5
193
100
AcDbEntity
  8
0
 62
7
100
AcDbLine
 10
4.184769
 20
8.526544
 30
0.0
 11
4.184769
 21
6.226935
 31
0.0
  0
LINE
  5
194
100
AcDbEntity
  8
0
 62
7
100
AcDbLine
 10
4.184769
 20
6.226935
 30
0.0
 11
2.584862
 21
6.226935
 31
0.0
  0
LINE
  5
195
100
AcDbEntity
  8
0
 62
7
100
AcDbLine
 10
2.584862
 20
6.226935
 30
0.0
 11
2.584862
 21
8.526544
 31
0.0
  0
LINE
  5
196
100
AcDbEntity
  8
0
 62
7
100
AcDbLine
 10
2.584862
 20
8.526544
 30
0.0
 11
2.584862
 21
8.526544
 31
0.0
  0
LINE
  5
197
100
AcDbEntity
  8
0
 62
7
100
AcDbLine
 10
2.584862
 20
8.526544
 30
0.0
 11
2.584862
 21
8.526544
 31
0.0
  0
LINE
  5
198
100
AcDbEntity
  8
0
 62
7
100
AcDbLine
 10
38.944500
 20
5.116932
 30
0.0
 11
40.040811
 21
4.662933
 31
0.0
  0
LINE
  5
199
100
AcDbEntity
  8
0
 62
7
100
AcDbLine
 10
40.040811
 20
4.662933
 30
0.0
 11
40.494797
 21
3.566632
 31
0.0
  0
LINE
  5
19a
100
AcDbEntity
  8
0
 62
7
100
AcDbLine
 10
40.494797
 20
3.566632
 30
0.0
 11
40.040629
 21
2.470649
 31
0.0
  0
LINE
  5
19b
100
AcDbEntity
  8
0
 62
7
100
AcDbLine
 10
40.040629
 20
2.470649
 30
0.0
 11
38.944500
 21
2.016835
 31
0.0
  0
LINE
  5
19c
100
AcDbEntity
  8
0
 62
7
100
AcDbLine
 10
38.944500
 20
2.016835
 30
0.0
 11
37.394716
 21
3.566632
 31
0.0
  0
LINE
  5
19d
100
AcDbEntity
  8
0
 62
7
100
AcDbLine
 10
37.394716
 20
3.566632
 30
0.0
 11
37.848519
 21
4.662748
 31
0.0
  0
LINE
  5
19e
100
AcDbEntity
  8
0
 62
7
100
AcDbLine
 10
37.848519
 20
4.662748
 30
0.0
 11
38.944500
 21
5.116932
 31
0.0
  0
LINE
  5
19f
100
AcDbEntity
  8
0
 62
7
100
AcDbLine
 10
19.689808
 20
4.901949
 30
0.0
 11
20.039658
 21
4.901949
 31
0.0
  0
LINE
  5
1a0
100
AcDbEntity
  8
0
 62
7
100
AcDbLine
 10
20.039658
 20
4.901949
 30
0.0
 11
20.039658
 21
3.501513
 31
0.0
  0
LINE
  5
1a1
100
AcDbEntity
  8
0
 62
7
100
AcDbLine
 10
20.039658
 20
3.501513
 30
0.0
 11
19.689808
 21
3.501513
 31
0.0
  0
LINE
  5
1a2
100
AcDbEntity
  8
0
 62
7
100
AcDbLine
 10
19.689808
 20
3.501513
 30
0.0
 11
19.689808
 21
4.901949
 31
0.0
  0
LINE
  5
1a3
100
AcDbEntity
  8
0
 62
7
100
AcDbLine
 10
19.689808
 20
4.901949
 30
0.0
 11
19.689808
 21
4.901949
 31
0.0
  0
LINE
  5
1a4
100
AcDbEntity
  8
0
 62
7
100
AcDbLine
 10
19.689808
 20
4.901949
 30
0.0
 11
19.689808
 21
4.901949
 31
0.0
  0
LINE
  5
1a5
100
AcDbEntity
  8
0
 62
7
100
AcDbLine
 10
20.339899
 20
4.901949
 30
0.0
 11
20.689750
 21
4.901949
 31
0.0
  0
LINE
  5
1a6
100
AcDbEntity
  8
0
 62
7
100
AcDbLine
 10
20.689750
 20
4.901949
 30
0.0
 11
20.689750
 21
3.501513
 31
0.0
  0
LINE
  5
1a7
100
AcDbEntity
  8
0
 62
7
100
AcDbLine
 10
20.689750
 20
3.501513
 30
0.0
 11
20.339899
 21
3.501513
 31
0.0
  0
LINE
  5
1a8
100
AcDbEntity
  8
0
 62
7
100
AcDbLine
 10
20.339899
 20
3.501513
 30
0.0
 11
20.339899
 21
4.901949
 31
0.0
  0
LINE
  5
1a9
100
AcDbEntity
  8
0
 62
7
100
AcDbLine
 10
20.339899
 20
4.901949
 30
0.0
 11
20.339899
 21
4.901949
 31
0.0
  0
LINE
  5
1aa
100
AcDbEntity
  8
0
 62
7
100
AcDbLine
 10
20.339899
 20
4.901949
 30
0.0
 11
20.339899
 21
4.901949
 31
0.0
  0
LINE
  5
1ab
100
AcDbEntity
  8
0
 62
7
100
AcDbLine
 10
20.989474
 20
4.901949
 30
0.0
 11
21.339841
 21
4.901949
 31
0.0
  0
LINE
  5
1ac
100
AcDbEntity
  8
0
 62
7
100
AcDbLine
 10
21.339841
 20
4.901949
 30
0.0
 11
21.339841
 21
3.501513
 31
0.0
  0
LINE
  5
1ad
100
AcDbEntity
  8
0
 62
7
100
AcDbLine
 10
21.339841
 20
3.501513
 30
0.0
 11
20.989474
 21
3.501513
 31
0.0
  0
LINE
  5
1ae
100
AcDbEntity
  8
0
 62
7
100
AcDbLine
 10
20.989474
 20
3.501513
 30
0.0
 11
20.989474
 21
4.901949
 31
0.0
  0
LINE
  5
1af
100
AcDbEntity
  8
0
 62
7
100
AcDbLine
 10
20.989474
 20
4.901949
 30
0.0
 11
20.989474
 21
4.901949
 31
0.0
  0
LINE
  5
1b0
100
AcDbEntity
  8
0
 62
7
100
AcDbLine
 10
20.989474
 20
4.901949
 30
0.0
 11
20.989474
 21
4.901949
 31
0.0
  0
LINE
  5
1b1
100
AcDbEntity
  8
0
 62
7
100
AcDbLine
 10
21.639565
 20
4.901949
 30
0.0
 11
21.989415
 21
4.901949
 31
0.0
  0
LINE
  5
1b2
100
AcDbEntity
  8
0
 62
7
100
AcDbLine
 10
21.989415
 20
4.901949
 30
0.0
 11
21.989415
 21
3.501513
 31
0.0
  0
LINE
  5
1b3
100
AcDbEntity
  8
0
 62
7
100
AcDbLine
 10
21.989415
 20
3.501513
 30
0.0
 11
21.639565
 21
3.501513
 31
0.0
  0
LINE
  5
1b4
100
AcDbEntity
  8
0
 62
7
100
AcDbLine
 10
21.639565
 20
3.501513
 30
0.0
 11
21.639565
 21
4.901949
 31
0.0
  0
LINE
  5
1b5
100
AcDbEntity
  8
0
 62
7
100
AcDbLine
 10
21.639565
 20
4.901949
 30
0.0
 11
21.639565
 21
4.901949
 31
0.0
  0
LINE
  5
1b6
100
AcDbEntity
  8
0
 62
7
100
AcDbLine
 10
21.639565
 20
4.901949
 30
0.0
 11
21.639565
 21
4.901949
 31
0.0
  0
LINE
  5
1b7
100
AcDbEntity
  8
0
 62
7
100
AcDbLine
 10
22.289656
 20
4.901949
 30
0.0
 11
22.639507
 21
4.901949
 31
0.0
  0
LINE
  5
1b8
100
AcDbEntity
  8
0
 62
7
100
AcDbLine
 10
22.639507
 20
4.901949
 30
0.0
 11
22.639507
 21
3.501513
 31
0.0
  0
LINE
  5
1b9
100
AcDbEntity
  8
0
 62
7
100
AcDbLine
 10
22.639507
 20
3.501513
 30
0.0
 11
22.289656
 21
3.501513
 31
0.0
  0
LINE
  5
1ba
100
AcDbEntity
  8
0
 62
7
100
AcDbLine
 10
22.289656
 20
3.501513
 30
0.0
 11
22.289656
 21
4.901949
 31
0.0
  0
LINE
  5
1bb
100
AcDbEntity
  8
0
 62
7
100
AcDbLine
 10
22.289656
 20
4.901949
 30
0.0
 11
22.289656
 21
4.901949
 31
0.0
  0
LINE
  5
1bc
100
AcDbEntity
  8
0
 62
7
100
AcDbLine
 10
22.289656
 20
4.901949
 30
0.0
 11
22.289656
 21
4.901949
 31
0.0
  0
LINE
  5
1bd
100
AcDbEntity
  8
0
 62
7
100
AcDbLine
 10
33.699843
 20
4.131451
 30
0.0
 11
35.299751
 21
4.131451
 31
0.0
  0
LINE
  5
1be
100
AcDbEntity
  8
0
 62
7
100
AcDbLine
 10
35.299751
 20
4.131451
 30
0.0
 11
35.299751
 21
1.831326
 31
0.0
  0
LINE
  5
1bf
100
AcDbEntity
  8
0
 62
7
100
AcDbLine
 10
35.299751
 20
1.831326
 30
0.0
 11
33.699843
 21
1.831326
 31
0.0
  0
LINE
  5
1c0
100
AcDbEntity
  8
0
 62
7
100
AcDbLine
 10
33.699843
 20
1.831326
 30
0.0
 11
33.699843
 21
4.131451
 31
0.0
  0
LINE
  5
1c1
100
AcDbEntity
  8
0
 62
7
100
AcDbLine
 10
33.699843
 20
4.131451
 30
0.0
 11
33.699843
 21
4.131451
 31
0.0
  0
LINE
  5
1c2
100
AcDbEntity
  8
0
 62
7
100
AcDbLine
 10
33.699843
 20
4.131451
 30
0.0
 11
33.699843
 21
4.131451
 31
0.0
  0
LINE
  5
1c3
100
AcDbEntity
  8
0
 62
7
100
AcDbLine
 10
16.264684
 20
2.501571
 30
0.0
 11
18.064580
 21
2.501571
 31
0.0
  0
LINE
  5
1c4
100
AcDbEntity
  8
0
 62
7
100
AcDbLine
 10
18.064580
 20
2.501571
 30
0.0
 11
18.064580
 21
0.601942
 31
0.0
  0
LINE
  5
1c5
100
AcDbEntity
  8
0
 62
7
100
AcDbLine
 10
18.064580
 20
0.601942
 30
0.0
 11
16.264684
 21
0.601942
 31
0.0
  0
LINE
  5
1c6
100
AcDbEntity
  8
0
 62
7
100
AcDbLine
 10
16.264684
 20
0.601942
 30
0.0
 11
16.264684
 21
2.501571
 31
0.0
  0
LINE
  5
1c7
100
AcDbEntity
  8
0
 62
7
100
AcDbLine
 10
16.264684
 20
2.501571
 30
0.0
 11
16.264684
 21
2.501571
 31
0.0
  0
LINE
  5
1c8
100
AcDbEntity
  8
0
 62
7
100
AcDbLine
 10
16.264684
 20
2.501571
 30
0.0
 11
16.264684
 21
2.501571
 31
0.0
  0
LINE
  5
1c9
100
AcDbEntity
  8
0
 62
7
100
AcDbLine
 10
24.264735
 20
2.501571
 30
0.0
 11
26.064630
 21
2.501571
 31
0.0
  0
LINE
  5
1ca
100
AcDbEntity
  8
0
 62
7
100
AcDbLine
 10
26.064630
 20
2.501571
 30
0.0
 11
26.064630
 21
0.601942
 31
0.0
  0
LINE
  5
1cb
100
AcDbEntity
  8
0
 62
7
100
AcDbLine
 10
26.064630
 20
0.601942
 30
0.0
 11
24.264735
 21
0.601942
 31
0.0
  0
LINE
  5
1cc
100
AcDbEntity
  8
0
 62
7
100
AcDbLine
 10
24.264735
 20
0.601942
 30
0.0
 11
24.264735
 21
2.501571
 31
0.0
  0
LINE
  5
1cd
100
AcDbEntity
  8
0
 62
7
100
AcDbLine
 10
24.264735
 20
2.501571
 30
0.0
 11
24.264735
 21
2.501571
 31
0.0
  0
LINE
  5
1ce
100
AcDbEntity
  8
0
 62
7
100
AcDbLine
 10
24.264735
 20
2.501571
 30
0.0
 11
24.264735
 21
2.501571
 31
0.0
  0
ENDSEC
  0
SECTION
  2
OBJECTS
  0
DICTIONARY
  5
C
330
0
100
AcDbDictionary
  3
ACAD_GROUP
350
D
  3
ACAD_MLINESTYLE
350
17
  0
DICTIONARY
  5
D
330
C
100
AcDbDictionary
  0
DICTIONARY
  5
1A
330
C
100
AcDbDictionary
  0
DICTIONARY
  5
17
330
C
100
AcDbDictionary
  3
STANDARD
350
18
  0
DICTIONARY
  5
19
330
C
100
AcDbDictionary
  0
ENDSEC
  0
EOF
